<?xml version="1.0" standalone="no"?>
<svg width="567.429" height="407.891" viewBox="0 0 567.429 407.891" xmlns="http://www.w3.org/2000/svg" shape-rendering="crispEdges">
<title>
output.svg
</title>
<desc>
Creator: ROOT Version 6.32.06
CreationDate: Thu Dec  5 16:50:04 2024</desc>
<defs>
</defs>
<rect x="0.5" y="0" width="566.929" height="407.391" fill="white"/>
<rect x="57.1929" y="40.7391" width="453.543" height="325.913" fill="white"/>
<rect x="57.1929" y="40.7391" width="453.543" height="325.913" fill="none" stroke="black"/>
<path d="M57.1929,329.598h 4.53543v 6.05837h 4.53543v 3.38556h 4.53543v -2.67281h 4.53543v 14.7895h 4.53543v -21.0261h 4.53543v 5.16743h 4.53543v 1.4255h 4.53543v 15.1459h 4.53543v -19.7788h 4.53543v -1.24731h 4.53543v 1.06912h 4.53543v 4.09831h
 4.53543v 8.01843h 4.53543v -15.5023h 4.53543v 6.9493h 4.53543v -4.45468h 4.53543v 3.92012h 4.53543v 7.30568h 4.53543v -4.09831h 4.53543v -2.67281h 4.53543v 4.45468h 4.53543v 3.56375h 4.53543v -16.3932h 4.53543v 5.34562h 4.53543v 5.70199h 4.53543v
 -7.84024h 4.53543v 5.16743h 4.53543v -0.890936h 4.53543v -3.74193h 4.53543v 6.23656h 4.53543v -3.74193h 4.53543v -8.19662h 4.53543v 8.3748h 4.53543v 4.27649h 4.53543v -5.34562h 4.53543v 0.890936h 4.53543v 6.05837h 4.53543v 0.890936h 4.53543v
 -14.6114h 4.53543v 6.05837h 4.53543v -3.20737h 4.53543v 8.3748h 4.53543v -3.02918h 4.53543v -9.44393h 4.53543v 15.6805h 4.53543v -7.84024h 4.53543v -6.9493h 4.53543v 4.98924h 4.53543v 15.6805h 4.53543v -22.0952h 4.53543v -1.06912h 4.53543v 10.5131h
 4.53543v -5.88018h 4.53543v 5.70199h 4.53543v -17.8187h 4.53543v 10.1567h 4.53543v -2.13825h 4.53543v -5.88018h 4.53543v 13.0077h 4.53543v -5.16743h 4.53543v -10.6912h 4.53543v -12.8295h 4.53543v 17.8187h 9.07087v 3.02918h 4.53543v -1.24731h
 4.53543v -9.08755h 4.53543v 13.7204h 4.53543v -11.0476h 4.53543v 1.24731h 4.53543v 1.06912h 4.53543v -4.09831h 4.53543v -0.178187h 4.53543v -7.30568h 4.53543v 3.56375h 4.53543v -5.34562h 4.53543v -9.8003h 4.53543v 6.9493h 4.53543v 0.712749h 4.53543v
 -17.4624h 4.53543v 9.26574h 4.53543v -12.2949h 4.53543v 5.16743h 4.53543v -0.178187h 4.53543v -9.8003h 4.53543v -6.9493h 4.53543v -6.9493h 4.53543v -3.38556h 4.53543v -16.5714h 4.53543v 7.48387h 4.53543v -24.0553h 4.53543v 6.41474h 4.53543v
 -23.6989h 4.53543v -26.0153h 4.53543v -6.41474h 4.53543v -24.9462h 4.53543v -47.7542h 4.53543v 0.712749h 4.53543v -48.1106h 4.53543" fill="none" stroke="#000099"/>
<path d="M57.1929,366.652h 453.543" fill="none" stroke="black"/>
<path d="M57.1929,356.875v 9.77739" fill="none" stroke="black"/>
<path d="M69.7913,361.763v 4.8887" fill="none" stroke="black"/>
<path d="M82.3898,361.763v 4.8887" fill="none" stroke="black"/>
<path d="M94.9882,361.763v 4.8887" fill="none" stroke="black"/>
<path d="M107.587,356.875v 9.77739" fill="none" stroke="black"/>
<path d="M120.185,361.763v 4.8887" fill="none" stroke="black"/>
<path d="M132.783,361.763v 4.8887" fill="none" stroke="black"/>
<path d="M145.382,361.763v 4.8887" fill="none" stroke="black"/>
<path d="M157.98,356.875v 9.77739" fill="none" stroke="black"/>
<path d="M170.579,361.763v 4.8887" fill="none" stroke="black"/>
<path d="M183.177,361.763v 4.8887" fill="none" stroke="black"/>
<path d="M195.776,361.763v 4.8887" fill="none" stroke="black"/>
<path d="M208.374,356.875v 9.77739" fill="none" stroke="black"/>
<path d="M220.972,361.763v 4.8887" fill="none" stroke="black"/>
<path d="M233.571,361.763v 4.8887" fill="none" stroke="black"/>
<path d="M246.169,361.763v 4.8887" fill="none" stroke="black"/>
<path d="M258.768,356.875v 9.77739" fill="none" stroke="black"/>
<path d="M271.366,361.763v 4.8887" fill="none" stroke="black"/>
<path d="M283.965,361.763v 4.8887" fill="none" stroke="black"/>
<path d="M296.563,361.763v 4.8887" fill="none" stroke="black"/>
<path d="M309.161,356.875v 9.77739" fill="none" stroke="black"/>
<path d="M321.76,361.763v 4.8887" fill="none" stroke="black"/>
<path d="M334.358,361.763v 4.8887" fill="none" stroke="black"/>
<path d="M346.957,361.763v 4.8887" fill="none" stroke="black"/>
<path d="M359.555,356.875v 9.77739" fill="none" stroke="black"/>
<path d="M372.154,361.763v 4.8887" fill="none" stroke="black"/>
<path d="M384.752,361.763v 4.8887" fill="none" stroke="black"/>
<path d="M397.35,361.763v 4.8887" fill="none" stroke="black"/>
<path d="M409.949,356.875v 9.77739" fill="none" stroke="black"/>
<path d="M422.547,361.763v 4.8887" fill="none" stroke="black"/>
<path d="M435.146,361.763v 4.8887" fill="none" stroke="black"/>
<path d="M447.744,361.763v 4.8887" fill="none" stroke="black"/>
<path d="M460.343,356.875v 9.77739" fill="none" stroke="black"/>
<path d="M472.941,361.763v 4.8887" fill="none" stroke="black"/>
<path d="M485.539,361.763v 4.8887" fill="none" stroke="black"/>
<path d="M498.138,361.763v 4.8887" fill="none" stroke="black"/>
<path d="M510.736,356.875v 9.77739" fill="none" stroke="black"/>
<path d="M510.736,356.875v 9.77739" fill="none" stroke="black"/>
<text xml:space="preserve" x="53.9167" y="380.327" fill="black" font-size="13.5814" font-family="Helvetica">0
</text>
<text xml:space="preserve" x="99.4989" y="380.327" fill="black" font-size="13.5814" font-family="Helvetica">20
</text>
<text xml:space="preserve" x="150.067" y="380.327" fill="black" font-size="13.5814" font-family="Helvetica">40
</text>
<text xml:space="preserve" x="200.635" y="380.327" fill="black" font-size="13.5814" font-family="Helvetica">60
</text>
<text xml:space="preserve" x="251.202" y="380.327" fill="black" font-size="13.5814" font-family="Helvetica">80
</text>
<text xml:space="preserve" x="297.497" y="380.327" fill="black" font-size="13.5814" font-family="Helvetica">100
</text>
<text xml:space="preserve" x="348.065" y="380.327" fill="black" font-size="13.5814" font-family="Helvetica">120
</text>
<text xml:space="preserve" x="398.632" y="380.327" fill="black" font-size="13.5814" font-family="Helvetica">140
</text>
<text xml:space="preserve" x="449.2" y="380.327" fill="black" font-size="13.5814" font-family="Helvetica">160
</text>
<text xml:space="preserve" x="499.056" y="380.327" fill="black" font-size="13.5814" font-family="Helvetica">180
</text>
<text xml:space="preserve" x="507.602" y="397.42" fill="black" font-size="9.22091" font-family="Helvetica">t
</text>
<text xml:space="preserve" x="499.056" y="392.435" fill="black" font-size="13.5814" font-family="Times">&#0945;
</text>
<text xml:space="preserve" x="491.934" y="392.435" fill="black" font-size="13.5814" font-family="Times">&#0948;
</text>
<text xml:space="preserve" x="480.538" y="392.435" fill="black" font-size="13.5814" font-family="Helvetica"> 
</text>
<path d="M57.1929,366.652v -325.913" fill="none" stroke="black"/>
<path d="M70.7992,362.563h -13.6063" fill="none" stroke="black"/>
<path d="M63.9961,353.653h -6.80315" fill="none" stroke="black"/>
<path d="M63.9961,344.744h -6.80315" fill="none" stroke="black"/>
<path d="M63.9961,335.835h -6.80315" fill="none" stroke="black"/>
<path d="M70.7992,326.925h -13.6063" fill="none" stroke="black"/>
<path d="M63.9961,318.016h -6.80315" fill="none" stroke="black"/>
<path d="M63.9961,309.107h -6.80315" fill="none" stroke="black"/>
<path d="M63.9961,300.197h -6.80315" fill="none" stroke="black"/>
<path d="M70.7992,291.288h -13.6063" fill="none" stroke="black"/>
<path d="M63.9961,282.378h -6.80315" fill="none" stroke="black"/>
<path d="M63.9961,273.469h -6.80315" fill="none" stroke="black"/>
<path d="M63.9961,264.56h -6.80315" fill="none" stroke="black"/>
<path d="M70.7992,255.65h -13.6063" fill="none" stroke="black"/>
<path d="M63.9961,246.741h -6.80315" fill="none" stroke="black"/>
<path d="M63.9961,237.832h -6.80315" fill="none" stroke="black"/>
<path d="M63.9961,228.922h -6.80315" fill="none" stroke="black"/>
<path d="M70.7992,220.013h -13.6063" fill="none" stroke="black"/>
<path d="M63.9961,211.104h -6.80315" fill="none" stroke="black"/>
<path d="M63.9961,202.194h -6.80315" fill="none" stroke="black"/>
<path d="M63.9961,193.285h -6.80315" fill="none" stroke="black"/>
<path d="M70.7992,184.375h -13.6063" fill="none" stroke="black"/>
<path d="M63.9961,175.466h -6.80315" fill="none" stroke="black"/>
<path d="M63.9961,166.557h -6.80315" fill="none" stroke="black"/>
<path d="M63.9961,157.647h -6.80315" fill="none" stroke="black"/>
<path d="M70.7992,148.738h -13.6063" fill="none" stroke="black"/>
<path d="M63.9961,139.829h -6.80315" fill="none" stroke="black"/>
<path d="M63.9961,130.919h -6.80315" fill="none" stroke="black"/>
<path d="M63.9961,122.01h -6.80315" fill="none" stroke="black"/>
<path d="M70.7992,113.101h -13.6063" fill="none" stroke="black"/>
<path d="M63.9961,104.191h -6.80315" fill="none" stroke="black"/>
<path d="M63.9961,95.2818h -6.80315" fill="none" stroke="black"/>
<path d="M63.9961,86.3725h -6.80315" fill="none" stroke="black"/>
<path d="M70.7992,77.4631h -13.6063" fill="none" stroke="black"/>
<path d="M63.9961,68.5537h -6.80315" fill="none" stroke="black"/>
<path d="M63.9961,59.6444h -6.80315" fill="none" stroke="black"/>
<path d="M63.9961,50.735h -6.80315" fill="none" stroke="black"/>
<path d="M70.7992,41.8256h -13.6063" fill="none" stroke="black"/>
<path d="M70.7992,362.563h -13.6063" fill="none" stroke="black"/>
<path d="M70.7992,41.8256h -13.6063" fill="none" stroke="black"/>
<text xml:space="preserve" x="24.7156" y="367.507" fill="black" font-size="13.5814" font-family="Helvetica">1200
</text>
<text xml:space="preserve" x="24.7156" y="331.896" fill="black" font-size="13.5814" font-family="Helvetica">1400
</text>
<text xml:space="preserve" x="24.7156" y="296.285" fill="black" font-size="13.5814" font-family="Helvetica">1600
</text>
<text xml:space="preserve" x="24.7156" y="260.673" fill="black" font-size="13.5814" font-family="Helvetica">1800
</text>
<text xml:space="preserve" x="24.7156" y="225.062" fill="black" font-size="13.5814" font-family="Helvetica">2000
</text>
<text xml:space="preserve" x="24.7156" y="189.451" fill="black" font-size="13.5814" font-family="Helvetica">2200
</text>
<text xml:space="preserve" x="24.7156" y="153.84" fill="black" font-size="13.5814" font-family="Helvetica">2400
</text>
<text xml:space="preserve" x="24.7156" y="118.229" fill="black" font-size="13.5814" font-family="Helvetica">2600
</text>
<text xml:space="preserve" x="24.7156" y="82.6178" fill="black" font-size="13.5814" font-family="Helvetica">2800
</text>
<text xml:space="preserve" x="24.7156" y="47.0067" fill="black" font-size="13.5814" font-family="Helvetica">3000
</text>
<g transform="rotate(-90,13.32,53.4167)">
<text xml:space="preserve" x="13.32" y="53.4167" fill="black" font-size="13.5814" font-family="Helvetica"> N
</text>
</g>
<text xml:space="preserve" x="293.936" y="27.0645" fill="black" font-size="14.7183" font-family="Helvetica">t
</text>
<text xml:space="preserve" x="280.403" y="20.6545" fill="black" font-size="21.8275" font-family="Times">&#0945;
</text>
<text xml:space="preserve" x="269.72" y="20.6545" fill="black" font-size="21.8275" font-family="Times">&#0948;
</text>
<rect x="442.705" y="26.4804" width="113.386" height="65.1826" fill="white"/>
<path d="M442.705,91.663h 113.386" fill="none" stroke="black"/>
<path d="M556.091,91.663v -65.1826" fill="none" stroke="black"/>
<path d="M556.091,26.4804h -113.386" fill="none" stroke="black"/>
<path d="M442.705,26.4804v 65.1826" fill="none" stroke="black"/>
<text xml:space="preserve" x="505.466" y="42.7334" fill="black" font-size="9.66942" font-family="Helvetica">t
</text>
<text xml:space="preserve" x="496.207" y="37.7478" fill="black" font-size="14.2541" font-family="Times">&#0945;
</text>
<text xml:space="preserve" x="489.085" y="37.7478" fill="black" font-size="14.2541" font-family="Times">&#0948;
</text>
<path d="M442.705,42.7761h 113.386" fill="none" stroke="black"/>
<text xml:space="preserve" x="448.488" y="54.8411" fill="black" font-size="10.0832" font-family="Helvetica">Entries 
</text>
<text xml:space="preserve" x="516.149" y="54.1289" fill="black" font-size="10.0832" font-family="Helvetica"> 151271
</text>
<text xml:space="preserve" x="448.488" y="71.2223" fill="black" font-size="10.0832" font-family="Helvetica">Mean  
</text>
<text xml:space="preserve" x="519.71" y="70.51" fill="black" font-size="10.0832" font-family="Helvetica">  97.28
</text>
<text xml:space="preserve" x="448.488" y="87.6034" fill="black" font-size="10.0832" font-family="Helvetica">Std Dev   
</text>
<text xml:space="preserve" x="519.71" y="86.8912" fill="black" font-size="10.0832" font-family="Helvetica">  53.89
</text>
<text xml:space="preserve" x="293.936" y="27.0645" fill="black" font-size="14.7183" font-family="Helvetica">t
</text>
<text xml:space="preserve" x="280.403" y="20.6545" fill="black" font-size="21.8275" font-family="Times">&#0945;
</text>
<text xml:space="preserve" x="269.72" y="20.6545" fill="black" font-size="21.8275" font-family="Times">&#0948;
</text></svg>
