<?xml version="1.0" standalone="no"?>
<svg width="567.429" height="407.891" viewBox="0 0 567.429 407.891" xmlns="http://www.w3.org/2000/svg" shape-rendering="crispEdges">
<title>
output.svg
</title>
<desc>
Creator: ROOT Version 6.32.06
CreationDate: Thu Dec  5 16:58:39 2024</desc>
<defs>
</defs>
<rect x="0.5" y="0" width="566.929" height="407.391" fill="white"/>
<rect x="57.1929" y="40.7391" width="453.543" height="325.913" fill="white"/>
<rect x="57.1929" y="40.7391" width="453.543" height="325.913" fill="none" stroke="black"/>
<path d="M57.1929,56.2588h 4.53543v 71.5857h 4.53543v 65.3652h 4.53543v 49.6633h 4.53543v 31.4312h 4.53543v 21.7305h 4.53543v 15.1812h 4.53543v 11.5458h 4.53543v 8.93337h 4.53543v 6.85988h 4.53543v 3.59892h 4.53543v 4.36621h 4.53543v 3.48931h
 4.53543v 2.00042h 4.53543v 2.24704h 4.53543v 1.30621h 4.53543v 1.58024h 4.53543v 0.840358h 4.53543v 1.67158h 4.53543v 0.164418h 4.53543v 0.730746h 4.53543v 0.904298h 4.53543v 0.27403h 4.53543v 0.621134h 4.53543v 0.703343h 4.53543v -0.237492h
 4.53543v 0.767283h 4.53543v 0.301433h 4.53543v 0.27403h 4.53543v 0.173552h 4.53543v 0.173552h 4.53543v 0.283164h 4.53543v 0.137015h 4.53543v -0.182686h 4.53543v 0.356239h 4.53543v 0.237492h 4.53543v -0.191821h 4.53543v 0.0913432h 4.53543v 0.283164h
 4.53543v 0.00913432h 4.53543v 0.109612h 4.53543v -0.0365373h 4.53543v 0.228358h 4.53543v 0.0913432h 4.53543v 0.0913432h 4.53543v -0.12788h 4.53543v 0.210089h 4.53543v -0.0913432h 4.53543v 0.0365373h 9.07087v 0.0182686h 9.07087v 0.100478h 4.53543v
 0.0182686h 4.53543v 0.100478h 4.53543v -0.200955h 4.53543v 0.200955h 4.53543v -0.00913432h 4.53543v 0.0365373h 9.07087v 0.109612h 4.53543v -0.109612h 4.53543v 0.118746h 4.53543v -0.0639402h 4.53543v 0.0365373h 4.53543v -0.137015h 4.53543v 0.173552h
 4.53543v -0.027403h 4.53543v -0.0730746h 4.53543v 0.12788h 9.07087v -0.0365373h 4.53543v -0.0639402h 4.53543v 0.164418h 4.53543v 0.00913432h 4.53543v 0.0182686h 4.53543v -0.0365373h 4.53543v -0.0639402h 4.53543v 0.0913432h 4.53543v -0.0639402h
 4.53543v 0.0822089h 4.53543v -0.027403h 4.53543v -0.0548059h 4.53543v 0.027403h 4.53543v 0.00913432h 4.53543v -0.0182686h 4.53543v 0.027403h 4.53543v 0.0182686h 4.53543v 0.00913432h 4.53543v -0.0182686h 4.53543v 0.00913432h 4.53543v 0.027403h
 4.53543v -0.0365373h 4.53543v 0.0365373h 4.53543v -0.0365373h 4.53543v 0.00913432h 4.53543v 0.0182686h 4.53543v 0.0365373h 4.53543v -0.0548059h 4.53543v 0.027403h 4.53543" fill="none" stroke="#000099"/>
<path d="M57.1929,366.652h 453.543" fill="none" stroke="black"/>
<path d="M57.1929,356.875v 9.77739" fill="none" stroke="black"/>
<path d="M72.311,361.763v 4.8887" fill="none" stroke="black"/>
<path d="M87.4291,361.763v 4.8887" fill="none" stroke="black"/>
<path d="M102.547,361.763v 4.8887" fill="none" stroke="black"/>
<path d="M117.665,361.763v 4.8887" fill="none" stroke="black"/>
<path d="M132.783,356.875v 9.77739" fill="none" stroke="black"/>
<path d="M147.902,361.763v 4.8887" fill="none" stroke="black"/>
<path d="M163.02,361.763v 4.8887" fill="none" stroke="black"/>
<path d="M178.138,361.763v 4.8887" fill="none" stroke="black"/>
<path d="M193.256,361.763v 4.8887" fill="none" stroke="black"/>
<path d="M208.374,356.875v 9.77739" fill="none" stroke="black"/>
<path d="M223.492,361.763v 4.8887" fill="none" stroke="black"/>
<path d="M238.61,361.763v 4.8887" fill="none" stroke="black"/>
<path d="M253.728,361.763v 4.8887" fill="none" stroke="black"/>
<path d="M268.846,361.763v 4.8887" fill="none" stroke="black"/>
<path d="M283.965,356.875v 9.77739" fill="none" stroke="black"/>
<path d="M299.083,361.763v 4.8887" fill="none" stroke="black"/>
<path d="M314.201,361.763v 4.8887" fill="none" stroke="black"/>
<path d="M329.319,361.763v 4.8887" fill="none" stroke="black"/>
<path d="M344.437,361.763v 4.8887" fill="none" stroke="black"/>
<path d="M359.555,356.875v 9.77739" fill="none" stroke="black"/>
<path d="M374.673,361.763v 4.8887" fill="none" stroke="black"/>
<path d="M389.791,361.763v 4.8887" fill="none" stroke="black"/>
<path d="M404.909,361.763v 4.8887" fill="none" stroke="black"/>
<path d="M420.028,361.763v 4.8887" fill="none" stroke="black"/>
<path d="M435.146,356.875v 9.77739" fill="none" stroke="black"/>
<path d="M450.264,361.763v 4.8887" fill="none" stroke="black"/>
<path d="M465.382,361.763v 4.8887" fill="none" stroke="black"/>
<path d="M480.5,361.763v 4.8887" fill="none" stroke="black"/>
<path d="M495.618,361.763v 4.8887" fill="none" stroke="black"/>
<path d="M510.736,356.875v 9.77739" fill="none" stroke="black"/>
<text xml:space="preserve" x="53.9167" y="380.327" fill="black" font-size="13.5814" font-family="Helvetica">0
</text>
<text xml:space="preserve" x="125.139" y="380.327" fill="black" font-size="13.5814" font-family="Helvetica">10
</text>
<text xml:space="preserve" x="200.635" y="380.327" fill="black" font-size="13.5814" font-family="Helvetica">20
</text>
<text xml:space="preserve" x="276.13" y="380.327" fill="black" font-size="13.5814" font-family="Helvetica">30
</text>
<text xml:space="preserve" x="351.626" y="380.327" fill="black" font-size="13.5814" font-family="Helvetica">40
</text>
<text xml:space="preserve" x="427.121" y="380.327" fill="black" font-size="13.5814" font-family="Helvetica">50
</text>
<text xml:space="preserve" x="502.617" y="380.327" fill="black" font-size="13.5814" font-family="Helvetica">60
</text>
<text xml:space="preserve" x="507.602" y="398.845" fill="black" font-size="9.22091" font-family="Helvetica">t
</text>
<text xml:space="preserve" x="500.48" y="391.01" fill="black" font-size="13.5814" font-family="Times">&#0966;
</text>
<text xml:space="preserve" x="493.358" y="391.01" fill="black" font-size="13.5814" font-family="Times">&#0948;
</text>
<text xml:space="preserve" x="481.962" y="391.01" fill="black" font-size="13.5814" font-family="Helvetica"> 
</text>
<path d="M57.1929,366.652v -325.913" fill="none" stroke="black"/>
<path d="M70.7992,366.652h -13.6063" fill="none" stroke="black"/>
<path d="M63.9961,357.518h -6.80315" fill="none" stroke="black"/>
<path d="M63.9961,348.384h -6.80315" fill="none" stroke="black"/>
<path d="M63.9961,339.249h -6.80315" fill="none" stroke="black"/>
<path d="M63.9961,330.115h -6.80315" fill="none" stroke="black"/>
<path d="M70.7992,320.981h -13.6063" fill="none" stroke="black"/>
<path d="M63.9961,311.846h -6.80315" fill="none" stroke="black"/>
<path d="M63.9961,302.712h -6.80315" fill="none" stroke="black"/>
<path d="M63.9961,293.578h -6.80315" fill="none" stroke="black"/>
<path d="M63.9961,284.443h -6.80315" fill="none" stroke="black"/>
<path d="M70.7992,275.309h -13.6063" fill="none" stroke="black"/>
<path d="M63.9961,266.175h -6.80315" fill="none" stroke="black"/>
<path d="M63.9961,257.04h -6.80315" fill="none" stroke="black"/>
<path d="M63.9961,247.906h -6.80315" fill="none" stroke="black"/>
<path d="M63.9961,238.772h -6.80315" fill="none" stroke="black"/>
<path d="M70.7992,229.637h -13.6063" fill="none" stroke="black"/>
<path d="M63.9961,220.503h -6.80315" fill="none" stroke="black"/>
<path d="M63.9961,211.369h -6.80315" fill="none" stroke="black"/>
<path d="M63.9961,202.234h -6.80315" fill="none" stroke="black"/>
<path d="M63.9961,193.1h -6.80315" fill="none" stroke="black"/>
<path d="M70.7992,183.966h -13.6063" fill="none" stroke="black"/>
<path d="M63.9961,174.831h -6.80315" fill="none" stroke="black"/>
<path d="M63.9961,165.697h -6.80315" fill="none" stroke="black"/>
<path d="M63.9961,156.563h -6.80315" fill="none" stroke="black"/>
<path d="M63.9961,147.428h -6.80315" fill="none" stroke="black"/>
<path d="M70.7992,138.294h -13.6063" fill="none" stroke="black"/>
<path d="M63.9961,129.16h -6.80315" fill="none" stroke="black"/>
<path d="M63.9961,120.025h -6.80315" fill="none" stroke="black"/>
<path d="M63.9961,110.891h -6.80315" fill="none" stroke="black"/>
<path d="M63.9961,101.757h -6.80315" fill="none" stroke="black"/>
<path d="M70.7992,92.6225h -13.6063" fill="none" stroke="black"/>
<path d="M63.9961,83.4882h -6.80315" fill="none" stroke="black"/>
<path d="M63.9961,74.3539h -6.80315" fill="none" stroke="black"/>
<path d="M63.9961,65.2196h -6.80315" fill="none" stroke="black"/>
<path d="M63.9961,56.0852h -6.80315" fill="none" stroke="black"/>
<path d="M70.7992,46.9509h -13.6063" fill="none" stroke="black"/>
<path d="M70.7992,46.9509h -13.6063" fill="none" stroke="black"/>
<text xml:space="preserve" x="47.5067" y="371.78" fill="black" font-size="13.5814" font-family="Helvetica">0
</text>
<text xml:space="preserve" x="24.7156" y="326.198" fill="black" font-size="13.5814" font-family="Helvetica">5000
</text>
<text xml:space="preserve" x="17.5933" y="280.616" fill="black" font-size="13.5814" font-family="Helvetica">10000
</text>
<text xml:space="preserve" x="17.5933" y="234.321" fill="black" font-size="13.5814" font-family="Helvetica">15000
</text>
<text xml:space="preserve" x="17.5933" y="188.739" fill="black" font-size="13.5814" font-family="Helvetica">20000
</text>
<text xml:space="preserve" x="17.5933" y="143.157" fill="black" font-size="13.5814" font-family="Helvetica">25000
</text>
<text xml:space="preserve" x="17.5933" y="97.5745" fill="black" font-size="13.5814" font-family="Helvetica">30000
</text>
<text xml:space="preserve" x="17.5933" y="51.9922" fill="black" font-size="13.5814" font-family="Helvetica">35000
</text>
<g transform="rotate(-90,5.48556,53.4167)">
<text xml:space="preserve" x="5.48556" y="53.4167" fill="black" font-size="13.5814" font-family="Helvetica"> N
</text>
</g>
<text xml:space="preserve" x="293.936" y="34.8989" fill="black" font-size="17.3842" font-family="Helvetica">t
</text>
<text xml:space="preserve" x="281.116" y="21.3667" fill="black" font-size="25.8264" font-family="Times">&#0966;
</text>
<text xml:space="preserve" x="268.296" y="21.3667" fill="black" font-size="25.8264" font-family="Times">&#0948;
</text>
<rect x="442.705" y="26.4804" width="113.386" height="65.1826" fill="white"/>
<path d="M442.705,91.663h 113.386" fill="none" stroke="black"/>
<path d="M556.091,91.663v -65.1826" fill="none" stroke="black"/>
<path d="M556.091,26.4804h -113.386" fill="none" stroke="black"/>
<path d="M442.705,26.4804v 65.1826" fill="none" stroke="black"/>
<text xml:space="preserve" x="504.754" y="44.1578" fill="black" font-size="9.66942" font-family="Helvetica">t
</text>
<text xml:space="preserve" x="497.631" y="36.3233" fill="black" font-size="14.2541" font-family="Times">&#0966;
</text>
<text xml:space="preserve" x="490.509" y="36.3233" fill="black" font-size="14.2541" font-family="Times">&#0948;
</text>
<path d="M442.705,42.7761h 113.386" fill="none" stroke="black"/>
<text xml:space="preserve" x="448.488" y="54.8411" fill="black" font-size="10.0832" font-family="Helvetica">Entries 
</text>
<text xml:space="preserve" x="516.149" y="54.1289" fill="black" font-size="10.0832" font-family="Helvetica"> 151271
</text>
<text xml:space="preserve" x="448.488" y="71.2223" fill="black" font-size="10.0832" font-family="Helvetica">Mean  
</text>
<text xml:space="preserve" x="519.71" y="70.51" fill="black" font-size="10.0832" font-family="Helvetica">  3.392
</text>
<text xml:space="preserve" x="448.488" y="87.6034" fill="black" font-size="10.0832" font-family="Helvetica">Std Dev   
</text>
<text xml:space="preserve" x="524.696" y="86.8912" fill="black" font-size="10.0832" font-family="Helvetica">   5.31
</text>
<text xml:space="preserve" x="293.936" y="34.8989" fill="black" font-size="17.3842" font-family="Helvetica">t
</text>
<text xml:space="preserve" x="281.116" y="21.3667" fill="black" font-size="25.8264" font-family="Times">&#0966;
</text>
<text xml:space="preserve" x="268.296" y="21.3667" fill="black" font-size="25.8264" font-family="Times">&#0948;
</text></svg>
