<?xml version="1.0" standalone="no"?>
<svg width="567.429" height="407.891" viewBox="0 0 567.429 407.891" xmlns="http://www.w3.org/2000/svg" shape-rendering="crispEdges">
<title>
output.svg
</title>
<desc>
Creator: ROOT Version 6.32.06
CreationDate: Thu Dec  5 16:25:20 2024</desc>
<defs>
</defs>
<rect x="0.5" y="0" width="566.929" height="407.391" fill="white"/>
<rect x="57.1929" y="40.7391" width="453.543" height="325.913" fill="white"/>
<rect x="57.1929" y="40.7391" width="453.543" height="325.913" fill="none" stroke="black"/>
<path d="M57.1929,56.2588h 0.907087v 309.433h 0.907087v -1.59997h 0.907087v -1.27997h 0.907087v -1.59997h 1.81417v -3.51992h 0.907087v 0.319993h 0.907087v 0.639986h 0.907087v -0.959979h 0.907087v -1.27997h 0.907087v -0.959979h 0.907087v -3.19993h
 0.907087v 2.87994h 0.907087v -5.11989h 0.907087v 0.319993h 0.907087v -3.51992h 0.907087v -1.27997h 0.907087v 4.4799h 0.907087v -2.55995h 0.907087v 0.639986h 0.907087v -1.59997h 0.907087v -1.59997h 0.907087v -7.03985h 0.907087v 7.67984h 0.907087v
 -5.43988h 0.907087v -4.4799h 0.907087v 0.639986h 0.907087v -1.91996h 0.907087v 1.27997h 0.907087v -1.27997h 0.907087v 0.959979h 0.907087v 2.87994h 0.907087v -4.7999h 0.907087v -1.59997h 0.907087v -8.31982h 0.907087v 4.4799h 0.907087v 0.959979h
 0.907087v -0.639986h 0.907087v -4.4799h 0.907087v 3.51992h 0.907087v -11.1998h 0.907087v 7.67984h 0.907087v 1.27997h 1.81417v -1.59997h 0.907087v -2.87994h 0.907087v -6.71986h 0.907087v -1.91996h 0.907087v 7.03985h 0.907087v -3.19993h 0.907087v
 -3.51992h 0.907087v 11.5198h 0.907087v -15.0397h 0.907087v -2.55995h 0.907087v 5.11989h 0.907087v -9.2798h 0.907087v 2.87994h 0.907087v 7.35984h 0.907087v -13.4397h 0.907087v 4.7999h 0.907087v 10.5598h 0.907087v -14.7197h 0.907087v 3.83992h
 0.907087v -8.31982h 0.907087v 17.9196h 0.907087v -13.7597h 0.907087v -5.11989h 0.907087v -0.319993h 0.907087v 0.319993h 0.907087v 5.75988h 0.907087v -6.39986h 0.907087v -2.87994h 0.907087v 8.63982h 0.907087v -1.91996h 0.907087v -5.43988h 0.907087v
 6.71986h 0.907087v -10.8798h 0.907087v -2.23995h 0.907087v -1.91996h 0.907087v 6.71986h 0.907087v -2.87994h 0.907087v -0.319993h 0.907087v 1.91996h 0.907087v -6.71986h 0.907087v -2.55995h 0.907087v 4.4799h 0.907087v 0.959979h 0.907087v -1.91996h
 0.907087v -4.4799h 0.907087v -2.55995h 0.907087v 8.31982h 0.907087v -5.43988h 0.907087v -2.87994h 0.907087v -5.11989h 0.907087v 4.4799h 0.907087v 5.43988h 0.907087v -9.59979h 0.907087v 7.35984h 1.81417v -6.71986h 1.81417v -6.39986h 0.907087v
 6.71986h 0.907087v -0.959979h 0.907087v -9.59979h 0.907087v 5.11989h 0.907087v -1.59997h 0.907087v -0.319993h 0.907087v 5.43988h 0.907087v -11.5198h 0.907087v 7.99983h 0.907087v 0.639986h 0.907087v -6.39986h 0.907087v 0.319993h 0.907087v -0.319993h
 0.907087v -3.51992h 0.907087v 14.0797h 0.907087v -12.1597h 0.907087v 0.639986h 0.907087v 3.19993h 0.907087v -1.27997h 0.907087v 0.319993h 0.907087v -6.07987h 0.907087v -5.43988h 0.907087v 5.75988h 0.907087v -1.27997h 0.907087v -0.959979h 1.81417v
 3.51992h 0.907087v -3.19993h 0.907087v 2.55995h 0.907087v -6.39986h 0.907087v -3.19993h 0.907087v 12.4797h 0.907087v -4.4799h 0.907087v -9.2798h 0.907087v 4.7999h 0.907087v -2.23995h 0.907087v 3.83992h 0.907087v -3.51992h 0.907087v -3.83992h
 0.907087v -5.43988h 0.907087v 4.7999h 0.907087v 3.19993h 0.907087v -7.99983h 0.907087v 5.11989h 0.907087v 2.23995h 0.907087v -8.95981h 0.907087v -9.59979h 0.907087v 5.75988h 0.907087v 10.2398h 0.907087v -5.43988h 0.907087v -4.15991h 0.907087v
 0.319993h 0.907087v -3.19993h 0.907087v 4.7999h 0.907087v 0.639986h 0.907087v 7.67984h 0.907087v -11.8397h 0.907087v 6.71986h 0.907087v -23.3595h 0.907087v 15.9997h 0.907087v 6.07987h 0.907087v -10.2398h 0.907087v 5.11989h 0.907087v 7.67984h
 0.907087v -9.59979h 0.907087v -6.39986h 0.907087v 13.1197h 0.907087v 1.59997h 0.907087v -18.5596h 0.907087v 11.1998h 0.907087v 3.51992h 0.907087v 3.19993h 0.907087v -8.95981h 0.907087v -9.2798h 0.907087v -1.59997h 0.907087v 13.4397h 0.907087v
 -6.07987h 0.907087v 11.8397h 0.907087v -16.9596h 0.907087v 14.0797h 0.907087v -5.43988h 0.907087v -11.8397h 0.907087v 12.7997h 0.907087v 3.19993h 0.907087v -1.59997h 0.907087v 5.11989h 0.907087v 6.39986h 0.907087v -18.2396h 0.907087v 2.23995h
 0.907087v 0.319993h 0.907087v -1.59997h 0.907087v 14.3997h 0.907087v -13.4397h 0.907087v -0.319993h 0.907087v -3.19993h 0.907087v 6.07987h 0.907087v -14.0797h 0.907087v 1.59997h 0.907087v 7.99983h 0.907087v 8.63982h 0.907087v -0.959979h 0.907087v
 -3.83992h 0.907087v -5.11989h 0.907087v 9.91979h 1.81417v -14.3997h 0.907087v 7.67984h 0.907087v -2.55995h 0.907087v -4.4799h 0.907087v 9.59979h 0.907087v 3.19993h 0.907087v -7.35984h 0.907087v 7.99983h 0.907087v 2.55995h 0.907087v -9.2798h
 0.907087v 9.91979h 0.907087v 4.15991h 0.907087v -16.3197h 0.907087v 8.95981h 0.907087v -1.59997h 0.907087v -9.59979h 0.907087v 4.7999h 0.907087v 1.91996h 0.907087v 7.67984h 1.81417v -13.7597h 0.907087v 9.91979h 0.907087v -6.39986h 0.907087v 5.75988h
 0.907087v -1.27997h 0.907087v 4.7999h 0.907087v 9.2798h 0.907087v -5.11989h 0.907087v 4.4799h 0.907087v -7.99983h 0.907087v -2.87994h 0.907087v 10.2398h 0.907087v 5.11989h 0.907087v -8.31982h 0.907087v -3.19993h 0.907087v 1.27997h 0.907087v 5.75988h
 0.907087v 4.15991h 0.907087v 0.319993h 0.907087v 6.39986h 0.907087v -6.39986h 0.907087v -6.71986h 0.907087v 7.35984h 0.907087v 7.03985h 0.907087v -1.27997h 0.907087v 2.23995h 0.907087v -2.55995h 0.907087v 0.319993h 0.907087v 0.319993h 0.907087v
 1.91996h 0.907087v 4.15991h 0.907087v -2.55995h 0.907087v -15.3597h 0.907087v 13.1197h 0.907087v -4.15991h 0.907087v -2.55995h 0.907087v 14.3997h 0.907087v -2.23995h 0.907087v -5.43988h 0.907087v 14.0797h 0.907087v 0.639986h 0.907087v 2.23995h
 0.907087v -7.03985h 0.907087v -3.83992h 0.907087v 4.7999h 0.907087v 1.91996h 0.907087v -6.07987h 0.907087v 5.11989h 0.907087v -8.63982h 0.907087v 10.8798h 0.907087v 5.43988h 0.907087v -11.5198h 0.907087v 11.8397h 0.907087v 8.31982h 0.907087v
 5.75988h 0.907087v -12.7997h 0.907087v 1.59997h 0.907087v 2.23995h 0.907087v 2.55995h 0.907087v -7.99983h 0.907087v 5.11989h 0.907087v 6.07987h 0.907087v -4.4799h 0.907087v 7.03985h 0.907087v 4.7999h 0.907087v -2.55995h 0.907087v -3.83992h 0.907087v
 -1.59997h 0.907087v -1.91996h 0.907087v 5.11989h 0.907087v -3.83992h 0.907087v 2.55995h 0.907087v -0.639986h 0.907087v 2.55995h 0.907087v -7.67984h 0.907087v 8.95981h 0.907087v -12.1597h 0.907087v 13.1197h 0.907087v -6.71986h 0.907087v 1.59997h
 0.907087v -0.959979h 0.907087v 1.27997h 0.907087v -0.959979h 0.907087v 2.87994h 0.907087v 3.51992h 0.907087v -4.4799h 0.907087v 4.4799h 0.907087v -12.1597h 0.907087v 5.75988h 0.907087v -1.27997h 0.907087v 4.4799h 0.907087v 2.55995h 0.907087v
 -1.27997h 0.907087v -6.07987h 0.907087v 6.71986h 0.907087v -2.23995h 0.907087v -1.27997h 0.907087v 0.639986h 0.907087v -3.51992h 0.907087v 7.99983h 0.907087v -8.95981h 0.907087v 10.5598h 0.907087v -4.4799h 0.907087v -0.319993h 0.907087v 4.7999h
 0.907087v -8.31982h 0.907087v 15.9997h 0.907087v -5.11989h 0.907087v -2.87994h 0.907087v 3.51992h 0.907087v 1.91996h 0.907087v -14.3997h 0.907087v 9.59979h 0.907087v 1.27997h 0.907087v -9.59979h 0.907087v 8.63982h 0.907087v -1.59997h 0.907087v
 4.15991h 1.81417v 3.19993h 0.907087v 6.71986h 0.907087v -10.8798h 0.907087v -3.83992h 0.907087v 3.51992h 0.907087v 6.07987h 0.907087v -12.1597h 0.907087v 9.2798h 0.907087v -5.43988h 0.907087v 7.67984h 0.907087v -10.5598h 0.907087v 1.91996h 0.907087v
 6.07987h 0.907087v 7.67984h 0.907087v -5.43988h 0.907087v -6.71986h 0.907087v 4.4799h 0.907087v 2.23995h 0.907087v 6.39986h 0.907087v -5.75988h 0.907087v 5.75988h 0.907087v -4.7999h 0.907087v 3.19993h 0.907087v -1.91996h 0.907087v 5.11989h 0.907087v
 -10.5598h 0.907087v 13.4397h 0.907087v -11.8397h 0.907087v 7.35984h 0.907087v -6.39986h 0.907087v 0.319993h 0.907087v 3.83992h 0.907087v -4.7999h 0.907087v 9.59979h 0.907087v -6.07987h 0.907087v 0.639986h 0.907087v 5.11989h 0.907087v -7.35984h
 0.907087v 14.3997h 0.907087v -9.2798h 0.907087v 1.59997h 0.907087v 5.43988h 0.907087v -7.35984h 0.907087v 0.639986h 0.907087v -9.2798h 0.907087v 7.03985h 0.907087v 2.55995h 0.907087v 2.87994h 0.907087v -3.19993h 0.907087v -3.51992h 0.907087v
 9.91979h 0.907087v -7.67984h 0.907087v -0.639986h 0.907087v 11.5198h 0.907087v -1.91996h 0.907087v -5.43988h 0.907087v 4.7999h 0.907087v -10.2398h 0.907087v 7.99983h 0.907087v -4.4799h 0.907087v 7.99983h 0.907087v -8.95981h 0.907087v 3.19993h
 0.907087v 4.15991h 0.907087v -2.23995h 0.907087v -2.87994h 0.907087v 7.03985h 0.907087v -1.59997h 0.907087v -2.55995h 0.907087v 7.03985h 0.907087v -0.639986h 0.907087v -8.63982h 0.907087v 8.63982h 0.907087v -5.75988h 0.907087v 3.83992h 0.907087v
 -1.27997h 1.81417v 4.7999h 0.907087v 5.11989h 0.907087v -9.91979h 0.907087v 1.59997h 0.907087v -2.23995h 0.907087v 5.11989h 0.907087v -8.63982h 0.907087v 8.63982h 0.907087v -2.55995h 0.907087v -0.959979h 0.907087v 7.35984h 0.907087v -8.31982h
 0.907087v 7.67984h 0.907087v -2.87994h 0.907087v -6.07987h 0.907087v 10.5598h 0.907087v -10.8798h 0.907087v 0.959979h 0.907087v 5.75988h 0.907087v 1.91996h 0.907087v 3.19993h 0.907087v -8.31982h 0.907087v 3.19993h 0.907087v 0.959979h 0.907087v
 -0.959979h 0.907087v 3.83992h 0.907087v -2.87994h 0.907087v 1.91996h 0.907087v -7.35984h 0.907087v 2.23995h 0.907087v 6.07987h 0.907087v -4.4799h 0.907087v 4.4799h 0.907087v -7.03985h 0.907087v 8.95981h 0.907087v -2.23995h 0.907087v 0.959979h
 0.907087v -7.99983h 0.907087v 9.91979h 0.907087v -3.19993h 0.907087v -2.55995h 0.907087v 3.51992h 0.907087v 1.27997h 0.907087v 1.59997h 0.907087v -1.59997h 0.907087v -1.27997h 0.907087v -1.91996h 0.907087v 5.75988h 0.907087v -2.23995h 0.907087v
 -2.55995h 0.907087v -0.959979h 0.907087v 9.91979h 0.907087v -2.55995h 0.907087v -3.83992h 0.907087v 4.15991h 0.907087v 6.71986h 0.907087v -8.63982h 0.907087v 3.51992h 0.907087v -3.51992h 0.907087v -1.59997h 0.907087v 6.07987h 0.907087v -6.71986h
 0.907087v 5.75988h 0.907087v 1.59997h 0.907087v -4.7999h 0.907087v 2.55995h 0.907087v -0.959979h 0.907087v 0.319993h 0.907087v -4.15991h 0.907087v 1.27997h 0.907087v 2.23995h 0.907087v 6.07987h 0.907087v -1.27997h 0.907087v 0.959979h 0.907087v
 -3.83992h 0.907087v -4.4799h 0.907087" fill="none" stroke="#000099"/>
<path d="M57.1929,366.652h 453.543" fill="none" stroke="black"/>
<path d="M57.1929,356.875v 9.77739" fill="none" stroke="black"/>
<path d="M66.2638,361.763v 4.8887" fill="none" stroke="black"/>
<path d="M75.3346,361.763v 4.8887" fill="none" stroke="black"/>
<path d="M84.4055,361.763v 4.8887" fill="none" stroke="black"/>
<path d="M93.4764,361.763v 4.8887" fill="none" stroke="black"/>
<path d="M102.547,356.875v 9.77739" fill="none" stroke="black"/>
<path d="M111.618,361.763v 4.8887" fill="none" stroke="black"/>
<path d="M120.689,361.763v 4.8887" fill="none" stroke="black"/>
<path d="M129.76,361.763v 4.8887" fill="none" stroke="black"/>
<path d="M138.831,361.763v 4.8887" fill="none" stroke="black"/>
<path d="M147.902,356.875v 9.77739" fill="none" stroke="black"/>
<path d="M156.972,361.763v 4.8887" fill="none" stroke="black"/>
<path d="M166.043,361.763v 4.8887" fill="none" stroke="black"/>
<path d="M175.114,361.763v 4.8887" fill="none" stroke="black"/>
<path d="M184.185,361.763v 4.8887" fill="none" stroke="black"/>
<path d="M193.256,356.875v 9.77739" fill="none" stroke="black"/>
<path d="M202.327,361.763v 4.8887" fill="none" stroke="black"/>
<path d="M211.398,361.763v 4.8887" fill="none" stroke="black"/>
<path d="M220.469,361.763v 4.8887" fill="none" stroke="black"/>
<path d="M229.539,361.763v 4.8887" fill="none" stroke="black"/>
<path d="M238.61,356.875v 9.77739" fill="none" stroke="black"/>
<path d="M247.681,361.763v 4.8887" fill="none" stroke="black"/>
<path d="M256.752,361.763v 4.8887" fill="none" stroke="black"/>
<path d="M265.823,361.763v 4.8887" fill="none" stroke="black"/>
<path d="M274.894,361.763v 4.8887" fill="none" stroke="black"/>
<path d="M283.965,356.875v 9.77739" fill="none" stroke="black"/>
<path d="M293.035,361.763v 4.8887" fill="none" stroke="black"/>
<path d="M302.106,361.763v 4.8887" fill="none" stroke="black"/>
<path d="M311.177,361.763v 4.8887" fill="none" stroke="black"/>
<path d="M320.248,361.763v 4.8887" fill="none" stroke="black"/>
<path d="M329.319,356.875v 9.77739" fill="none" stroke="black"/>
<path d="M338.39,361.763v 4.8887" fill="none" stroke="black"/>
<path d="M347.461,361.763v 4.8887" fill="none" stroke="black"/>
<path d="M356.531,361.763v 4.8887" fill="none" stroke="black"/>
<path d="M365.602,361.763v 4.8887" fill="none" stroke="black"/>
<path d="M374.673,356.875v 9.77739" fill="none" stroke="black"/>
<path d="M383.744,361.763v 4.8887" fill="none" stroke="black"/>
<path d="M392.815,361.763v 4.8887" fill="none" stroke="black"/>
<path d="M401.886,361.763v 4.8887" fill="none" stroke="black"/>
<path d="M410.957,361.763v 4.8887" fill="none" stroke="black"/>
<path d="M420.028,356.875v 9.77739" fill="none" stroke="black"/>
<path d="M429.098,361.763v 4.8887" fill="none" stroke="black"/>
<path d="M438.169,361.763v 4.8887" fill="none" stroke="black"/>
<path d="M447.24,361.763v 4.8887" fill="none" stroke="black"/>
<path d="M456.311,361.763v 4.8887" fill="none" stroke="black"/>
<path d="M465.382,356.875v 9.77739" fill="none" stroke="black"/>
<path d="M474.453,361.763v 4.8887" fill="none" stroke="black"/>
<path d="M483.524,361.763v 4.8887" fill="none" stroke="black"/>
<path d="M492.594,361.763v 4.8887" fill="none" stroke="black"/>
<path d="M501.665,361.763v 4.8887" fill="none" stroke="black"/>
<path d="M510.736,356.875v 9.77739" fill="none" stroke="black"/>
<text xml:space="preserve" x="53.9167" y="380.327" fill="black" font-size="13.5814" font-family="Helvetica">0
</text>
<text xml:space="preserve" x="88.8156" y="380.327" fill="black" font-size="13.5814" font-family="Helvetica">0.05
</text>
<text xml:space="preserve" x="139.383" y="380.327" fill="black" font-size="13.5814" font-family="Helvetica">0.1
</text>
<text xml:space="preserve" x="179.98" y="380.327" fill="black" font-size="13.5814" font-family="Helvetica">0.15
</text>
<text xml:space="preserve" x="229.123" y="380.327" fill="black" font-size="13.5814" font-family="Helvetica">0.2
</text>
<text xml:space="preserve" x="270.432" y="380.327" fill="black" font-size="13.5814" font-family="Helvetica">0.25
</text>
<text xml:space="preserve" x="320.288" y="380.327" fill="black" font-size="13.5814" font-family="Helvetica">0.3
</text>
<text xml:space="preserve" x="360.885" y="380.327" fill="black" font-size="13.5814" font-family="Helvetica">0.35
</text>
<text xml:space="preserve" x="410.74" y="380.327" fill="black" font-size="13.5814" font-family="Helvetica">0.4
</text>
<text xml:space="preserve" x="452.049" y="380.327" fill="black" font-size="13.5814" font-family="Helvetica">0.45
</text>
<text xml:space="preserve" x="501.192" y="380.327" fill="black" font-size="13.5814" font-family="Helvetica">0.5
</text>
<text xml:space="preserve" x="420.711" y="393.859" fill="black" font-size="13.5814" font-family="Helvetica"> Delta Pt [GeV]
</text>
<path d="M57.1929,366.652v -325.913" fill="none" stroke="black"/>
<path d="M70.7992,366.652h -13.6063" fill="none" stroke="black"/>
<path d="M63.9961,350.652h -6.80315" fill="none" stroke="black"/>
<path d="M63.9961,334.653h -6.80315" fill="none" stroke="black"/>
<path d="M63.9961,318.653h -6.80315" fill="none" stroke="black"/>
<path d="M70.7992,302.654h -13.6063" fill="none" stroke="black"/>
<path d="M63.9961,286.654h -6.80315" fill="none" stroke="black"/>
<path d="M63.9961,270.654h -6.80315" fill="none" stroke="black"/>
<path d="M63.9961,254.655h -6.80315" fill="none" stroke="black"/>
<path d="M70.7992,238.655h -13.6063" fill="none" stroke="black"/>
<path d="M63.9961,222.655h -6.80315" fill="none" stroke="black"/>
<path d="M63.9961,206.656h -6.80315" fill="none" stroke="black"/>
<path d="M63.9961,190.656h -6.80315" fill="none" stroke="black"/>
<path d="M70.7992,174.656h -13.6063" fill="none" stroke="black"/>
<path d="M63.9961,158.657h -6.80315" fill="none" stroke="black"/>
<path d="M63.9961,142.657h -6.80315" fill="none" stroke="black"/>
<path d="M63.9961,126.657h -6.80315" fill="none" stroke="black"/>
<path d="M70.7992,110.658h -13.6063" fill="none" stroke="black"/>
<path d="M63.9961,94.658h -6.80315" fill="none" stroke="black"/>
<path d="M63.9961,78.6583h -6.80315" fill="none" stroke="black"/>
<path d="M63.9961,62.6587h -6.80315" fill="none" stroke="black"/>
<path d="M70.7992,46.659h -13.6063" fill="none" stroke="black"/>
<path d="M70.7992,46.659h -13.6063" fill="none" stroke="black"/>
<text xml:space="preserve" x="47.5067" y="371.78" fill="black" font-size="13.5814" font-family="Helvetica">0
</text>
<text xml:space="preserve" x="32.55" y="307.68" fill="black" font-size="13.5814" font-family="Helvetica">200
</text>
<text xml:space="preserve" x="32.55" y="243.58" fill="black" font-size="13.5814" font-family="Helvetica">400
</text>
<text xml:space="preserve" x="32.55" y="179.48" fill="black" font-size="13.5814" font-family="Helvetica">600
</text>
<text xml:space="preserve" x="32.55" y="115.38" fill="black" font-size="13.5814" font-family="Helvetica">800
</text>
<text xml:space="preserve" x="24.7156" y="51.9922" fill="black" font-size="13.5814" font-family="Helvetica">1000
</text>
<g transform="rotate(-90,13.32,53.4167)">
<text xml:space="preserve" x="13.32" y="53.4167" fill="black" font-size="13.5814" font-family="Helvetica"> N
</text>
</g>
<text xml:space="preserve" x="251.915" y="20.6545" fill="black" font-size="17.973" font-family="Helvetica">Delta Pt
</text>
<rect x="442.705" y="26.4804" width="113.386" height="65.1826" fill="white"/>
<path d="M442.705,91.663h 113.386" fill="none" stroke="black"/>
<path d="M556.091,91.663v -65.1826" fill="none" stroke="black"/>
<path d="M556.091,26.4804h -113.386" fill="none" stroke="black"/>
<path d="M442.705,26.4804v 65.1826" fill="none" stroke="black"/>
<text xml:space="preserve" x="473.416" y="40.5967" fill="black" font-size="14.2541" font-family="Helvetica">Delta Pt
</text>
<path d="M442.705,42.7761h 113.386" fill="none" stroke="black"/>
<text xml:space="preserve" x="448.488" y="54.8411" fill="black" font-size="10.0832" font-family="Helvetica">Entries 
</text>
<text xml:space="preserve" x="516.149" y="54.1289" fill="black" font-size="10.0832" font-family="Helvetica"> 151271
</text>
<text xml:space="preserve" x="448.488" y="71.2223" fill="black" font-size="10.0832" font-family="Helvetica">Mean  
</text>
<text xml:space="preserve" x="516.861" y="70.51" fill="black" font-size="10.0832" font-family="Helvetica"> 0.2306
</text>
<text xml:space="preserve" x="448.488" y="87.6034" fill="black" font-size="10.0832" font-family="Helvetica">Std Dev   
</text>
<text xml:space="preserve" x="516.861" y="86.8912" fill="black" font-size="10.0832" font-family="Helvetica"> 0.1168
</text>
<text xml:space="preserve" x="251.915" y="20.6545" fill="black" font-size="17.973" font-family="Helvetica">Delta Pt
</text></svg>
