<?xml version="1.0" standalone="no"?>
<svg width="567.429" height="407.891" viewBox="0 0 567.429 407.891" xmlns="http://www.w3.org/2000/svg" shape-rendering="crispEdges">
<title>
output.svg
</title>
<desc>
Creator: ROOT Version 6.32.06
CreationDate: Sun Dec  1 18:08:27 2024</desc>
<defs>
</defs>
<rect x="0.5" y="0" width="566.929" height="407.391" fill="white"/>
<rect x="57.1929" y="40.7391" width="453.543" height="325.913" fill="white"/>
<rect x="57.1929" y="40.7391" width="453.543" height="325.913" fill="none" stroke="black"/>
<path d="M57.1929,362.097h 0.304391v 3.2536h 0.304391v -1.30144h 0.608783v 1.30144h 0.608783v -0.65072h 0.304391v 0.65072h 0.304391v -0.65072h 0.304391v -1.30144h 0.304391v 2.60288h 0.304391v -1.30144h 0.304391v -1.30144h 0.608783v 0.65072h 0.304391v
 -0.65072h 0.304391v 0.65072h 0.304391v 1.30144h 0.608783v -0.65072h 0.608783v -0.65072h 0.304391v 0.65072h 0.304391v 0.65072h 0.304391v 0.65072h 0.304391v -1.95216h 0.304391v 0.65072h 0.304391v -2.60288h 0.304391v 2.60288h 0.304391v -0.65072h
 0.608783v 1.30144h 0.304391v -0.65072h 0.608783v 0.65072h 0.608783v -1.95216h 0.608783v 2.60288h 0.304391v -2.60288h 0.304391v 2.60288h 0.304391v -4.55504h 0.304391v 1.95216h 0.304391v -0.65072h 0.304391v 0.65072h 0.304391v -3.2536h 0.304391v
 3.2536h 0.913174v -0.65072h 0.608783v 1.95216h 0.304391v -1.30144h 0.304391v -0.65072h 0.304391v -0.65072h 0.304391v 1.30144h 0.304391v -5.20576h 0.304391v 5.20576h 0.304391v -1.95216h 0.304391v 0.65072h 0.608783v 2.60288h 0.304391v -1.30144h
 0.304391v -1.95216h 0.304391v -1.30144h 0.304391v 1.30144h 0.304391v 2.60288h 0.304391v -1.95216h 0.608783v -3.2536h 0.304391v 3.2536h 0.304391v -0.65072h 0.304391v 2.60288h 0.304391v -5.20576h 0.304391v 2.60288h 0.608783v -1.30144h 0.304391v
 2.60288h 0.608783v -1.30144h 0.608783v -0.65072h 0.304391v 0.65072h 0.304391v 1.30144h 0.304391v -4.55504h 0.304391v -0.65072h 0.304391v 5.85648h 0.304391v -3.90432h 0.304391v 1.30144h 0.304391v -1.95216h 0.304391v 5.20576h 0.304391v -1.30144h
 0.304391v -3.2536h 0.304391v 2.60288h 0.608783v -0.65072h 0.304391v -1.30144h 0.304391v 3.2536h 0.304391v -0.65072h 0.304391v -1.30144h 0.304391v -3.2536h 0.304391v 1.95216h 0.304391v -2.60288h 0.304391v 3.2536h 0.304391v -2.60288h 0.304391v
 0.65072h 0.304391v -1.95216h 0.304391v 1.95216h 0.304391v 1.30144h 0.608783v -1.30144h 0.304391v 1.95216h 0.608783v -2.60288h 0.304391v 5.85648h 0.304391v -2.60288h 0.304391v -3.2536h 0.608783v -0.65072h 0.304391v 0.65072h 0.304391v 1.30144h
 0.304391v -4.55504h 0.304391v 7.80864h 0.304391v -4.55504h 0.304391v 2.60288h 0.608783v -1.30144h 0.304391v 0.65072h 0.304391v -1.95216h 0.304391v 1.30144h 0.304391v 3.2536h 0.304391v -6.5072h 0.304391v 5.20576h 0.304391v -6.5072h 0.304391v 1.95216h
 0.304391v 1.30144h 0.304391v 0.65072h 0.608783v 2.60288h 0.304391v 0.65072h 0.304391v -7.80864h 0.304391v 3.90432h 0.304391v -3.2536h 0.304391v 2.60288h 0.304391v -4.55504h 0.304391v 7.15792h 0.304391v 1.30144h 0.304391v -5.85648h 0.304391v 5.20576h
 0.304391v -2.60288h 0.304391v -5.20576h 0.304391v 5.20576h 0.304391v -7.15792h 0.304391v 3.90432h 0.304391v -4.55504h 0.304391v 3.2536h 0.304391v -1.95216h 0.304391v 3.2536h 0.304391v 2.60288h 0.304391v 2.60288h 0.304391v 1.95216h 0.304391v
 -4.55504h 0.304391v -4.55504h 0.304391v 2.60288h 0.304391v 5.20576h 0.304391v -1.95216h 0.304391v -3.2536h 0.304391v 3.2536h 0.304391v -5.20576h 0.304391v 0.65072h 0.304391v 0.65072h 0.304391v 1.95216h 0.304391v -3.90432h 0.304391v 2.60288h
 0.304391v -1.30144h 0.304391v 1.30144h 0.304391v -1.30144h 0.304391v 1.30144h 0.304391v 2.60288h 0.304391v -6.5072h 0.304391v 3.2536h 0.304391v 1.95216h 0.304391v -3.2536h 0.304391v -1.30144h 0.304391v -1.95216h 0.304391v 1.30144h 0.304391v 6.5072h
 0.304391v -1.95216h 0.608783v -5.20576h 0.304391v 2.60288h 0.304391v -3.2536h 0.304391v 4.55504h 0.304391v -4.55504h 0.304391v -0.65072h 0.304391v 1.95216h 0.304391v 2.60288h 0.608783v 3.90432h 0.304391v -2.60288h 0.304391v -3.90432h 0.304391v
 -2.60288h 0.304391v 4.55504h 0.304391v -0.65072h 0.304391v -0.65072h 0.304391v -3.2536h 0.304391v -5.20576h 0.304391v 12.3637h 0.304391v -5.20576h 0.304391v -5.85648h 0.304391v 9.7608h 0.304391v -3.2536h 0.608783v 1.95216h 0.304391v -6.5072h
 0.304391v 1.30144h 0.304391v 10.4115h 0.304391v -7.15792h 0.304391v -5.20576h 0.304391v 5.85648h 0.304391v -3.2536h 0.304391v -8.45936h 0.304391v 11.713h 0.304391v 0.65072h 0.304391v -4.55504h 0.304391v 5.85648h 0.304391v -1.95216h 0.304391v
 -5.20576h 0.304391v -1.30144h 0.304391v 7.15792h 0.304391v -1.95216h 0.304391v 1.95216h 0.304391v -1.95216h 0.304391v 1.30144h 0.304391v -1.30144h 0.304391v -1.30144h 0.304391v -0.65072h 0.608783v -3.2536h 0.304391v 1.30144h 0.304391v -8.45936h
 0.304391v 3.2536h 0.304391v 7.80864h 0.304391v -1.95216h 0.304391v -3.2536h 0.304391v 1.30144h 0.304391v -5.20576h 0.304391v 3.90432h 0.304391v -2.60288h 0.304391v -1.30144h 0.304391v 6.5072h 0.304391v -9.7608h 0.304391v 1.30144h 0.304391v 4.55504h
 0.304391v 3.90432h 0.304391v -5.85648h 0.304391v -0.65072h 0.304391v 5.85648h 0.304391v -4.55504h 0.304391v 6.5072h 0.304391v 2.60288h 0.304391v -14.3158h 0.304391v 5.85648h 0.304391v 1.30144h 0.304391v -3.90432h 0.304391v -8.45936h 0.304391v
 18.2202h 0.304391v -11.0622h 0.304391v -6.5072h 0.304391v 9.7608h 0.304391v -5.20576h 0.304391v 5.85648h 0.304391v -5.85648h 0.304391v 2.60288h 0.304391v 2.60288h 0.304391v -7.15792h 0.304391v 4.55504h 0.304391v 7.15792h 0.304391v -7.80864h
 0.304391v -3.90432h 0.304391v 3.2536h 0.304391v -7.15792h 0.304391v 2.60288h 0.304391v 3.2536h 0.304391v 4.55504h 0.304391v -5.20576h 0.304391v 2.60288h 0.304391v -3.90432h 0.304391v 3.2536h 0.304391v -6.5072h 0.304391v 11.713h 0.304391v -14.9666h
 0.304391v 12.3637h 0.304391v -9.7608h 0.304391v 4.55504h 0.304391v 3.2536h 0.304391v -5.20576h 0.304391v -0.65072h 0.608783v -5.20576h 0.304391v 4.55504h 0.304391v -18.2202h 0.304391v 18.2202h 0.304391v 6.5072h 0.304391v -14.9666h 0.304391v 4.55504h
 0.304391v -1.95216h 0.304391v -1.95216h 0.304391v -1.30144h 0.304391v 4.55504h 0.304391v -7.15792h 0.304391v 5.20576h 0.608783v -2.60288h 0.304391v 6.5072h 0.304391v -0.65072h 0.304391v 3.90432h 0.304391v -16.9187h 0.304391v 2.60288h 0.304391v
 0.65072h 0.304391v 1.30144h 0.304391v 3.90432h 0.304391v 3.90432h 0.304391v -0.65072h 0.304391v -16.268h 0.304391v 3.2536h 0.304391v 13.6651h 0.304391v -7.80864h 0.304391v 12.3637h 0.304391v -15.6173h 0.304391v -1.30144h 0.304391v 7.80864h 0.304391v
 -10.4115h 0.304391v 6.5072h 0.304391v 5.85648h 0.304391v -9.11008h 0.304391v -5.85648h 0.304391v 0.65072h 0.304391v 7.80864h 0.304391v -9.11008h 0.304391v -1.95216h 0.304391v -2.60288h 0.304391v 6.5072h 0.304391v 1.30144h 0.608783v -5.85648h
 0.304391v 13.6651h 0.304391v -12.3637h 0.304391v -3.90432h 0.304391v 3.2536h 0.304391v 2.60288h 0.304391v -11.0622h 0.304391v 9.11008h 0.304391v -9.11008h 0.304391v -1.30144h 0.304391v 1.30144h 0.304391v 2.60288h 0.304391v 3.2536h 0.304391v 1.30144h
 0.304391v -6.5072h 0.304391v 8.45936h 0.304391v -1.95216h 0.304391v -5.85648h 0.304391v -3.2536h 0.304391v 5.20576h 0.304391v -2.60288h 0.304391v -9.11008h 0.304391v 3.2536h 0.304391v 1.95216h 0.304391v -1.95216h 0.304391v 1.95216h 0.304391v
 -0.65072h 0.304391v 1.30144h 0.304391v 1.30144h 0.608783v -10.4115h 0.304391v 11.713h 0.304391v -7.80864h 0.304391v 11.713h 0.304391v -20.823h 0.304391v 5.20576h 0.304391v 10.4115h 0.304391v -7.15792h 0.304391v -3.2536h 0.304391v 9.7608h 0.304391v
 -15.6173h 0.304391v 7.80864h 0.304391v -9.11008h 0.304391v -8.45936h 0.304391v 11.713h 0.304391v 5.85648h 0.304391v -9.11008h 0.304391v -0.65072h 0.304391v -4.55504h 0.304391v 13.0144h 0.304391v -15.6173h 0.304391v 11.0622h 0.304391v 2.60288h
 0.304391v -15.6173h 0.304391v -6.5072h 0.304391v 14.3158h 0.304391v -5.85648h 0.304391v -22.1245h 0.304391v 35.7896h 0.304391v -2.60288h 0.304391v -9.11008h 0.304391v 12.3637h 0.304391v -8.45936h 0.304391v -16.9187h 0.304391v 5.20576h 0.304391v
 -9.7608h 0.304391v 20.1723h 0.304391v 1.30144h 0.304391v -7.15792h 0.304391v -10.4115h 0.304391v 3.90432h 0.304391v 4.55504h 0.304391v -11.0622h 0.304391v 1.95216h 0.304391v -7.15792h 0.304391v 8.45936h 0.304391v -11.713h 0.304391v 5.20576h
 0.304391v 6.5072h 0.304391v 3.90432h 0.304391v -10.4115h 0.304391v -2.60288h 0.304391v -4.55504h 0.304391v 0.65072h 0.304391v 0.65072h 0.304391v 16.268h 0.304391v -7.80864h 0.304391v 3.2536h 0.304391v -17.5694h 0.304391v -3.2536h 0.304391v 9.11008h
 0.608783v 5.20576h 0.304391v -20.1723h 0.304391v 11.713h 0.304391v -4.55504h 0.304391v 9.7608h 0.304391v -16.268h 0.304391v 18.2202h 0.304391v 1.30144h 0.304391v -17.5694h 0.304391v -9.7608h 0.304391v 7.80864h 0.304391v 1.30144h 0.304391v 2.60288h
 0.304391v -14.9666h 0.304391v -11.0622h 0.304391v 8.45936h 0.304391v 9.7608h 0.304391v 3.90432h 0.304391v -16.268h 0.304391v 22.1245h 0.304391v -12.3637h 0.304391v 4.55504h 0.304391v -13.0144h 0.304391v -7.15792h 0.304391v 28.6317h 0.304391v
 -16.268h 0.304391v -24.7274h 0.304391v 20.823h 0.304391v 10.4115h 0.304391v -17.5694h 0.304391v 15.6173h 0.304391v -10.4115h 0.304391v -1.95216h 0.304391v -9.11008h 0.304391v -15.6173h 0.304391v 19.5216h 0.304391v 7.15792h 0.304391v -24.7274h
 0.304391v 11.0622h 0.304391v 14.9666h 0.304391v -13.6651h 0.304391v -3.90432h 0.304391v -11.713h 0.304391v 8.45936h 0.304391v 27.981h 0.304391v -15.6173h 0.304391v -7.80864h 0.304391v -9.7608h 0.304391v 7.80864h 0.304391v -9.7608h 0.304391v
 -13.6651h 0.304391v 5.85648h 0.304391v 21.4738h 0.304391v -5.20576h 0.304391v -11.0622h 0.304391v -4.55504h 0.304391v -22.1245h 0.304391v 21.4738h 0.304391v -16.268h 0.304391v 5.85648h 0.304391v 4.55504h 0.304391v -16.268h 0.304391v 27.981h
 0.304391v -18.8709h 0.304391v 7.15792h 0.304391v 13.0144h 0.304391v -22.7752h 0.304391v 10.4115h 0.304391v -7.15792h 0.304391v 11.713h 0.304391v -19.5216h 0.608783v 8.45936h 0.304391v -0.65072h 0.304391v -5.20576h 0.304391v 11.713h 0.304391v
 -9.11008h 0.304391v -3.2536h 0.304391v 1.30144h 0.304391v 2.60288h 0.304391v -4.55504h 0.304391v 1.95216h 0.304391v 14.3158h 0.304391v -7.80864h 0.304391v -12.3637h 0.304391v -5.85648h 0.304391v -32.536h 0.304391v 39.0432h 0.304391v -8.45936h
 0.304391v 14.3158h 0.304391v -15.6173h 0.304391v 24.7274h 0.304391v -31.2346h 0.304391v 13.6651h 0.304391v -5.85648h 0.304391v 4.55504h 0.304391v -11.713h 0.304391v -7.80864h 0.304391v -3.90432h 0.304391v -1.30144h 0.304391v 18.8709h 0.304391v
 11.713h 0.304391v -39.6939h 0.304391v 7.15792h 0.304391v 12.3637h 0.304391v -5.20576h 0.304391v -12.3637h 0.304391v -11.0622h 0.304391v 11.0622h 0.304391v 2.60288h 0.304391v -3.90432h 0.304391v -2.60288h 0.304391v -3.90432h 0.304391v 13.0144h
 0.304391v 3.2536h 0.304391v -7.80864h 0.304391v -11.713h 0.304391v -13.0144h 0.304391v 28.6317h 0.304391v -14.3158h 0.304391v 27.3302h 0.304391v -25.3781h 0.304391v 8.45936h 0.304391v -30.5838h 0.304391v 11.0622h 0.304391v 26.6795h 0.304391v
 -18.8709h 0.304391v 14.9666h 0.304391v -2.60288h 0.304391v -25.3781h 0.304391v 48.1533h 0.304391v -39.6939h 0.304391v -4.55504h 0.304391v -5.20576h 0.304391v -10.4115h 0.304391v 37.091h 0.304391v -5.20576h 0.304391v -16.268h 0.304391v 16.268h
 0.304391v 0.65072h 0.304391v -15.6173h 0.304391v -7.15792h 0.304391v 9.11008h 0.304391v -25.3781h 0.304391v 22.7752h 0.304391v 1.30144h 0.304391v -19.5216h 0.304391v -1.95216h 0.304391v 26.6795h 0.304391v -11.713h 0.304391v -9.7608h 0.304391v
 12.3637h 0.304391v -9.11008h 0.304391v -13.6651h 0.304391v 10.4115h 0.304391v -36.4403h 0.304391v 51.4069h 0.304391v -3.90432h 0.304391v -12.3637h 0.304391v -22.1245h 0.304391v 31.2346h 0.304391v -28.6317h 0.304391v 0.65072h 0.304391v 13.0144h
 0.304391v 12.3637h 0.304391v 9.11008h 0.304391v -29.2824h 0.304391v 16.9187h 0.304391v 5.85648h 0.304391v -33.1867h 0.304391v 17.5694h 0.304391v -2.60288h 0.304391v -4.55504h 0.304391v 22.7752h 0.304391v -2.60288h 0.304391v -16.9187h 0.304391v
 32.536h 0.304391v -45.5504h 0.304391v 15.6173h 0.304391v 29.2824h 0.304391v -15.6173h 0.304391v 16.268h 0.304391v 9.11008h 0.304391v -26.0288h 0.304391v 17.5694h 0.304391v -7.80864h 0.304391v 6.5072h 0.304391v 10.4115h 0.304391v 5.85648h 0.304391v
 -31.8853h 0.304391v 11.0622h 0.304391v -11.0622h 0.304391v 20.823h 0.304391v 5.85648h 0.304391v 1.30144h 0.304391v 3.2536h 0.304391v -0.65072h 0.304391v -14.9666h 0.304391v -9.7608h 0.304391v 20.823h 0.304391v -9.11008h 0.304391v 5.20576h 0.304391v
 11.713h 0.304391v -14.3158h 0.304391v -10.4115h 0.304391v 9.7608h 0.304391v 13.0144h 0.304391v -1.30144h 0.304391v -14.9666h 0.304391v 18.2202h 0.304391v -18.8709h 0.304391v 9.11008h 0.304391v -6.5072h 0.304391v 24.0766h 0.304391v -0.65072h
 0.304391v -10.4115h 0.304391v 11.0622h 0.304391v -26.0288h 0.304391v 13.6651h 0.304391v -2.60288h 0.304391v 1.95216h 0.304391v -5.85648h 0.304391v -6.5072h 0.304391v -3.2536h 0.304391v 36.4403h 0.304391v -22.7752h 0.304391v 12.3637h 0.304391v
 -18.2202h 0.304391v 27.981h 0.304391v -12.3637h 0.304391v -1.95216h 0.304391v -8.45936h 0.304391v 9.7608h 0.304391v -11.0622h 0.304391v 30.5838h 0.304391v -20.1723h 0.608783v -1.95216h 0.304391v 28.6317h 0.304391v -24.0766h 0.304391v 11.0622h
 0.304391v 3.2536h 0.304391v -13.0144h 0.304391v 5.20576h 0.304391v 14.3158h 0.304391v -20.1723h 0.608783v -5.85648h 0.304391v 3.90432h 0.304391v -7.15792h 0.304391v 37.7417h 0.304391v -26.0288h 0.304391v -1.30144h 0.304391v -22.1245h 0.304391v
 29.2824h 0.304391v -3.90432h 0.304391v 27.981h 0.304391v -25.3781h 0.304391v 16.9187h 0.304391v 14.3158h 0.304391v -38.3925h 0.304391v 16.9187h 0.304391v -8.45936h 0.304391v -9.11008h 0.304391v 14.3158h 0.304391v 0.65072h 0.304391v 1.30144h
 0.304391v -8.45936h 0.304391v 22.7752h 0.304391v -22.1245h 0.304391v 14.9666h 0.304391v 6.5072h 0.304391v -6.5072h 0.304391v -1.95216h 0.304391v -4.55504h 0.304391v 12.3637h 0.304391v -25.3781h 0.304391v 40.9953h 0.304391v -18.2202h 0.304391v
 17.5694h 0.304391v 3.2536h 0.304391v -7.80864h 0.304391v -3.2536h 0.304391v 5.20576h 0.304391v 17.5694h 0.304391v -26.6795h 0.304391v 26.0288h 0.304391v -14.9666h 0.304391v -9.7608h 0.304391v -0.65072h 0.304391v 9.11008h 0.304391v -6.5072h 0.304391v
 -0.65072h 0.304391v 4.55504h 0.304391v 4.55504h 0.304391v 11.0622h 0.304391v 9.7608h 0.304391v -18.8709h 0.304391v 12.3637h 0.304391v -3.2536h 0.304391v -5.20576h 0.304391v 9.7608h 0.304391v -7.15792h 0.304391v 1.95216h 0.304391v 4.55504h 0.304391v
 -22.7752h 0.304391v 24.0766h 0.304391v -17.5694h 0.304391v 19.5216h 0.304391v 12.3637h 0.304391v -18.2202h 0.304391v 5.85648h 0.304391v -4.55504h 0.304391v 1.30144h 0.304391v 1.95216h 0.304391v 9.11008h 0.304391v -20.1723h 0.304391v 18.2202h
 0.304391v -1.30144h 0.304391v 1.30144h 0.304391v 9.7608h 0.304391v -16.268h 0.304391v -5.20576h 0.304391v 21.4738h 0.304391v -0.65072h 0.304391v 1.30144h 0.304391v 9.7608h 0.304391v -24.7274h 0.304391v 10.4115h 0.304391v 11.713h 0.304391v -16.268h
 0.304391v 14.9666h 0.304391v 11.0622h 0.304391v -12.3637h 0.304391v 17.5694h 0.304391v -12.3637h 0.304391v -5.20576h 0.304391v 3.2536h 0.304391v 7.15792h 0.304391v -17.5694h 0.304391v 22.7752h 0.304391v -1.30144h 0.304391v -5.85648h 0.304391v
 -9.7608h 0.304391v 18.2202h 0.608783v 1.95216h 0.304391v 9.11008h 0.304391v -8.45936h 0.304391v 6.5072h 0.304391v -3.90432h 0.304391v 9.11008h 0.304391v -26.6795h 0.304391v 28.6317h 0.304391v 1.30144h 0.304391v -20.823h 0.304391v 6.5072h 0.304391v
 6.5072h 0.304391v -26.6795h 0.304391v 16.268h 0.304391v 14.3158h 0.304391v 7.15792h 0.304391v 4.55504h 0.304391v -9.11008h 0.304391v -9.7608h 0.304391v 7.15792h 0.304391v -4.55504h 0.304391v 9.7608h 0.304391v -6.5072h 0.304391v 3.2536h 0.304391v
 2.60288h 0.304391v 11.713h 0.304391v -3.90432h 0.304391v -11.0622h 0.304391v 20.1723h 0.304391v -14.3158h 0.304391v -1.30144h 0.304391v 11.0622h 0.304391v -14.9666h 0.304391v 14.9666h 0.304391v 7.80864h 0.304391v -0.65072h 0.304391v -8.45936h
 0.304391v -5.85648h 0.608783v 9.11008h 0.304391v -1.95216h 0.304391v 1.95216h 0.304391v 3.90432h 0.304391v -3.90432h 0.304391v 8.45936h 0.304391v -13.0144h 0.304391v 21.4738h 0.304391v -5.20576h 0.304391v -13.0144h 0.304391v 20.823h 0.304391v
 -7.80864h 0.304391v 7.15792h 0.304391v -1.30144h 0.304391v -0.65072h 0.304391v -8.45936h 0.608783v 13.6651h 0.304391v -3.2536h 0.304391v -6.5072h 0.304391v 1.95216h 0.304391v -5.85648h 0.304391v 13.0144h 0.304391v -11.713h 0.304391v 11.713h
 0.304391v -3.90432h 0.304391v 11.713h 0.304391v -9.7608h 0.304391v 3.2536h 0.304391v 3.2536h 0.304391v 5.85648h 0.304391v -13.6651h 0.304391v 16.9187h 0.304391v -12.3637h 0.304391v 3.90432h 0.304391v 12.3637h 0.304391v -11.0622h 0.304391v 0.65072h
 0.608783v -6.5072h 0.304391v 9.11008h 0.304391v 0.65072h 0.304391v 11.0622h 0.304391v -10.4115h 0.304391v 1.30144h 0.304391v -1.95216h 0.304391v 2.60288h 0.304391v -9.7608h 0.304391v 13.6651h 0.304391v 2.60288h 0.304391v 9.11008h 0.304391v -7.15792h
 0.304391v -1.95216h 0.304391v 1.30144h 0.304391v 0.65072h 0.304391v 1.95216h 0.304391v -9.11008h 0.304391v 13.6651h 0.304391v -8.45936h 0.304391v -3.2536h 0.304391v 6.5072h 0.304391v 3.90432h 0.304391v -5.20576h 0.304391v 1.30144h 0.304391v
 -1.30144h 0.304391v 9.7608h 0.304391v -4.55504h 0.304391v 7.80864h 0.304391v -13.0144h 0.304391v 17.5694h 0.304391v -19.5216h 0.304391v 11.713h 0.608783v 7.80864h 0.304391v -10.4115h 0.304391v 0.65072h 0.304391v 10.4115h 0.304391v -3.2536h 0.304391v
 8.45936h 0.304391v -12.3637h 0.304391v 2.60288h 0.304391v 5.85648h 0.304391v -1.95216h 0.304391v -6.5072h 0.304391v 6.5072h 0.304391v 3.2536h 0.304391v -8.45936h 0.304391v 1.30144h 0.304391v 3.2536h 0.304391v 4.55504h 0.304391v -12.3637h 0.304391v
 22.1245h 0.304391v -12.3637h 0.304391v -0.65072h 0.304391v 2.60288h 0.304391v 10.4115h 0.304391v -16.268h 0.304391v 13.6651h 0.304391v -12.3637h 0.304391v 5.85648h 0.304391v 5.20576h 0.304391v -2.60288h 0.304391v -13.0144h 0.304391v 14.9666h
 0.304391v 0.65072h 0.304391v -9.7608h 0.304391v -4.55504h 0.304391v 13.0144h 0.304391v -1.95216h 0.304391v 5.20576h 0.304391v 3.90432h 0.304391v -5.85648h 0.304391v -3.2536h 0.304391v 13.0144h 0.608783v -9.11008h 0.304391v 5.20576h 0.304391v
 -6.5072h 0.304391v 3.2536h 0.304391v -6.5072h 0.304391v 9.11008h 0.304391v -7.15792h 0.304391v 1.95216h 0.304391v 7.15792h 0.304391v -1.95216h 0.304391v 3.2536h 0.304391v -1.95216h 0.304391v -0.65072h 0.608783v -3.2536h 0.304391v 6.5072h 0.304391v
 -7.15792h 0.304391v 3.90432h 0.304391v 1.95216h 0.608783v -0.65072h 0.304391v 5.20576h 0.304391v -4.55504h 0.304391v -1.30144h 0.304391v 1.95216h 0.304391v 3.2536h 0.304391v -2.60288h 0.304391v -1.95216h 0.304391v -0.65072h 0.304391v 2.60288h
 0.304391v 1.95216h 0.304391v -3.90432h 0.304391v 1.95216h 0.304391v 0.65072h 0.304391v 3.2536h 0.608783v -1.95216h 0.304391v 3.90432h 0.304391v 3.2536h 0.304391v -4.55504h 0.608783v -0.65072h 0.913174v -0.65072h 0.304391v 2.60288h 0.304391v 1.95216h
 0.304391v -5.20576h 0.304391v 2.60288h 0.304391v -0.65072h 0.304391v 4.55504h 0.608783v -5.20576h 0.304391v 1.95216h 0.304391v 3.2536h 0.304391v -1.95216h 0.304391v 4.55504h 0.304391v -5.85648h 0.608783v 0.65072h 0.304391v -3.2536h 0.304391v
 2.60288h 0.304391v 1.30144h 0.304391v 6.5072h 0.304391v -3.2536h 0.304391v -3.2536h 0.304391v 0.65072h 0.304391v 0.65072h 0.304391v 1.30144h 0.304391v -0.65072h 0.304391v -3.2536h 0.304391v 4.55504h 0.304391v 1.30144h 0.304391v -3.90432h 0.304391v
 -1.95216h 0.304391v 3.90432h 0.304391v -1.30144h 0.304391v 3.2536h 0.608783v -5.85648h 0.304391v 5.85648h 0.304391v -4.55504h 0.304391v -0.65072h 0.304391v 1.95216h 0.304391v 3.2536h 0.304391v -3.2536h 0.304391v 3.2536h 0.304391v 1.95216h 0.304391v
 1.30144h 0.304391v -7.15792h 0.304391v 5.20576h 0.304391v -0.65072h 0.304391v -1.30144h 0.304391v 1.30144h 0.304391v 2.60288h 0.304391v -1.30144h 0.608783v -0.65072h 0.304391v -3.2536h 0.304391v 5.85648h 0.304391v 1.95216h 0.304391v -2.60288h
 0.304391v 0.65072h 0.304391v -3.90432h 0.304391v 2.60288h 0.304391v 1.30144h 0.304391v -0.65072h 0.304391v -1.30144h 0.304391v -1.30144h 0.304391v 0.65072h 0.304391v 3.90432h 0.304391v -3.2536h 0.304391v 3.2536h 0.304391v -5.85648h 0.304391v
 1.95216h 0.304391v 1.95216h 0.304391v 1.30144h 0.304391v -5.85648h 0.304391v 3.2536h 0.304391v 0.65072h 0.304391v -0.65072h 0.304391v -0.65072h 0.304391v 5.20576h 0.304391v -1.30144h 0.304391v -1.95216h 0.608783v -1.95216h 0.304391v 3.2536h
 0.304391v -3.2536h 0.304391v 0.65072h 0.304391v 0.65072h 0.304391v 2.60288h 0.304391v 1.30144h 0.304391v -2.60288h 0.304391v 0.65072h 0.304391v -2.60288h 0.304391v 1.30144h 0.608783v 0.65072h 0.304391v -3.2536h 0.304391v 2.60288h 0.304391v 0.65072h
 0.304391v -1.30144h 0.304391v 1.95216h 0.608783v 1.95216h 0.304391v -4.55504h 0.304391v 1.30144h 0.304391v 0.65072h 0.304391v -0.65072h 0.608783v -2.60288h 0.304391v 4.55504h 0.304391v -1.30144h 0.608783v 1.30144h 0.304391v -2.60288h 0.304391v
 1.30144h 0.304391v 0.65072h 0.304391v -0.65072h 0.304391v 1.95216h 0.304391v 0.65072h 0.304391v 0.65072h 0.304391v -3.2536h 0.304391v 0.65072h 0.304391v 1.95216h 0.304391v -0.65072h 0.304391v -3.2536h 0.304391v 1.30144h 0.608783v 1.95216h 0.304391v
 -0.65072h 0.608783v 1.30144h 0.304391v -0.65072h 0.304391v 0.65072h 0.304391v -2.60288h 0.304391v 0.65072h 0.304391v 1.95216h 0.304391v 0.65072h 0.304391v -1.30144h 0.304391v -1.95216h 0.304391v -0.65072h 0.304391v 2.60288h 0.304391v 0.65072h
 0.608783v -1.95216h 0.304391v 0.65072h 0.608783v -0.65072h 0.608783v 1.30144h 0.304391v 0.65072h 0.304391v -1.95216h 0.304391v -0.65072h 0.304391v 0.65072h 0.304391v 1.95216h 0.608783v -1.30144h 0.304391v 1.30144h 0.304391v -1.95216h 0.304391v
 0.65072h 0.304391v 1.95216h 0.304391v -0.65072h 0.304391v -1.30144h 0.304391v 0.65072h 0.304391v -0.65072h 0.304391v -0.65072h 0.304391v 2.60288h 0.304391v -1.30144h 0.304391v -0.65072h 0.304391v 1.30144h 0.608783v -0.65072h 0.608783v 1.30144h
 0.304391v -0.65072h 0.304391v 0.65072h 0.304391v -1.95216h 0.304391v 1.30144h 0.304391v 0.65072h 0.304391v -0.65072h 0.304391v 0.65072h 0.913174v -0.65072h 0.304391v 0.65072h 0.304391v -0.65072h 0.608783v -0.65072h 0.304391v 1.30144h 0.304391v
 -0.65072h 0.304391v 0.65072h 0.608783v -1.95216h 0.304391v 1.95216h 0.304391v -0.65072h 0.608783v -0.65072h 0.304391v 0.65072h 0.304391v 0.65072h 0.304391v -1.30144h 0.304391v -0.65072h 0.304391v 0.65072h 0.608783v -0.65072h 0.304391v 1.95216h
 0.608783v -0.65072h 0.913174v -0.65072h 0.304391v -0.65072h 0.304391v 1.95216h 1.52196v -0.65072h 0.304391v 0.65072h 0.304391v -1.30144h 0.304391v 0.65072h 0.913174v 0.65072h 0.304391v -0.65072h 0.304391v 0.65072h 0.608783v -0.65072h 0.608783v
 0.65072h 0.304391v -0.65072h 0.304391v 0.65072h 1.21757v -1.30144h 0.608783v 1.30144h 0.304391v -1.30144h 0.304391v 1.30144h 0.304391v -0.65072h 0.608783v 0.65072h 2.73952v -0.65072h 0.304391v -0.65072h 0.304391v 1.30144h 0.913174v -0.65072h
 0.304391v -0.65072h 0.304391v 1.30144h 0.304391v -0.65072h 0.608783v 0.65072h 0.608783v -0.65072h 0.304391v 0.65072h 0.913174v -0.65072h 0.304391v 0.65072h 3.34831v -1.30144h 0.304391v 1.30144h 0.304391v -0.65072h 0.304391v 0.65072h 0.304391v
 -0.65072h 0.304391v 0.65072h 0.913174v -1.30144h 0.304391v 1.30144h 0.913174v -0.65072h 0.304391v 0.65072h 5.17465v -0.65072h 0.304391v 0.65072h 1.52196v -0.65072h 0.304391v 0.65072h 5.78344v -0.65072h 0.304391v 0.65072h 53.5729" fill="none"
 stroke="#000099"/>
<path d="M57.1929,366.652h 453.543" fill="none" stroke="black"/>
<path d="M115.027,356.875v 9.77739" fill="none" stroke="black"/>
<path d="M130.247,361.763v 4.8887" fill="none" stroke="black"/>
<path d="M145.466,361.763v 4.8887" fill="none" stroke="black"/>
<path d="M160.686,361.763v 4.8887" fill="none" stroke="black"/>
<path d="M175.906,356.875v 9.77739" fill="none" stroke="black"/>
<path d="M191.125,361.763v 4.8887" fill="none" stroke="black"/>
<path d="M206.345,361.763v 4.8887" fill="none" stroke="black"/>
<path d="M221.564,361.763v 4.8887" fill="none" stroke="black"/>
<path d="M236.784,356.875v 9.77739" fill="none" stroke="black"/>
<path d="M252.003,361.763v 4.8887" fill="none" stroke="black"/>
<path d="M267.223,361.763v 4.8887" fill="none" stroke="black"/>
<path d="M282.443,361.763v 4.8887" fill="none" stroke="black"/>
<path d="M297.662,356.875v 9.77739" fill="none" stroke="black"/>
<path d="M312.882,361.763v 4.8887" fill="none" stroke="black"/>
<path d="M328.101,361.763v 4.8887" fill="none" stroke="black"/>
<path d="M343.321,361.763v 4.8887" fill="none" stroke="black"/>
<path d="M358.54,356.875v 9.77739" fill="none" stroke="black"/>
<path d="M373.76,361.763v 4.8887" fill="none" stroke="black"/>
<path d="M388.98,361.763v 4.8887" fill="none" stroke="black"/>
<path d="M404.199,361.763v 4.8887" fill="none" stroke="black"/>
<path d="M419.419,356.875v 9.77739" fill="none" stroke="black"/>
<path d="M434.638,361.763v 4.8887" fill="none" stroke="black"/>
<path d="M449.858,361.763v 4.8887" fill="none" stroke="black"/>
<path d="M465.077,361.763v 4.8887" fill="none" stroke="black"/>
<path d="M480.297,356.875v 9.77739" fill="none" stroke="black"/>
<path d="M115.027,356.875v 9.77739" fill="none" stroke="black"/>
<path d="M99.8077,361.763v 4.8887" fill="none" stroke="black"/>
<path d="M84.5882,361.763v 4.8887" fill="none" stroke="black"/>
<path d="M69.3686,361.763v 4.8887" fill="none" stroke="black"/>
<path d="M480.297,356.875v 9.77739" fill="none" stroke="black"/>
<path d="M495.517,361.763v 4.8887" fill="none" stroke="black"/>
<path d="M510.736,361.763v 4.8887" fill="none" stroke="black"/>
<text xml:space="preserve" x="111.607" y="380.327" fill="black" font-size="13.5814" font-family="Helvetica">2
</text>
<text xml:space="preserve" x="172.146" y="380.327" fill="black" font-size="13.5814" font-family="Helvetica">4
</text>
<text xml:space="preserve" x="233.397" y="380.327" fill="black" font-size="13.5814" font-family="Helvetica">6
</text>
<text xml:space="preserve" x="293.936" y="380.327" fill="black" font-size="13.5814" font-family="Helvetica">8
</text>
<text xml:space="preserve" x="350.913" y="380.327" fill="black" font-size="13.5814" font-family="Helvetica">10
</text>
<text xml:space="preserve" x="411.452" y="380.327" fill="black" font-size="13.5814" font-family="Helvetica">12
</text>
<text xml:space="preserve" x="472.704" y="380.327" fill="black" font-size="13.5814" font-family="Helvetica">14
</text>
<text xml:space="preserve" x="469.855" y="394.571" fill="black" font-size="13.5814" font-family="Helvetica"> radius
</text>
<path d="M57.1929,366.652v -325.913" fill="none" stroke="black"/>
<path d="M70.7992,366.652h -13.6063" fill="none" stroke="black"/>
<path d="M63.9961,353.638h -6.80315" fill="none" stroke="black"/>
<path d="M63.9961,340.623h -6.80315" fill="none" stroke="black"/>
<path d="M63.9961,327.609h -6.80315" fill="none" stroke="black"/>
<path d="M63.9961,314.595h -6.80315" fill="none" stroke="black"/>
<path d="M70.7992,301.58h -13.6063" fill="none" stroke="black"/>
<path d="M63.9961,288.566h -6.80315" fill="none" stroke="black"/>
<path d="M63.9961,275.551h -6.80315" fill="none" stroke="black"/>
<path d="M63.9961,262.537h -6.80315" fill="none" stroke="black"/>
<path d="M63.9961,249.523h -6.80315" fill="none" stroke="black"/>
<path d="M70.7992,236.508h -13.6063" fill="none" stroke="black"/>
<path d="M63.9961,223.494h -6.80315" fill="none" stroke="black"/>
<path d="M63.9961,210.479h -6.80315" fill="none" stroke="black"/>
<path d="M63.9961,197.465h -6.80315" fill="none" stroke="black"/>
<path d="M63.9961,184.451h -6.80315" fill="none" stroke="black"/>
<path d="M70.7992,171.436h -13.6063" fill="none" stroke="black"/>
<path d="M63.9961,158.422h -6.80315" fill="none" stroke="black"/>
<path d="M63.9961,145.407h -6.80315" fill="none" stroke="black"/>
<path d="M63.9961,132.393h -6.80315" fill="none" stroke="black"/>
<path d="M63.9961,119.379h -6.80315" fill="none" stroke="black"/>
<path d="M70.7992,106.364h -13.6063" fill="none" stroke="black"/>
<path d="M63.9961,93.3498h -6.80315" fill="none" stroke="black"/>
<path d="M63.9961,80.3354h -6.80315" fill="none" stroke="black"/>
<path d="M63.9961,67.321h -6.80315" fill="none" stroke="black"/>
<path d="M63.9961,54.3066h -6.80315" fill="none" stroke="black"/>
<path d="M70.7992,41.2922h -13.6063" fill="none" stroke="black"/>
<path d="M70.7992,41.2922h -13.6063" fill="none" stroke="black"/>
<text xml:space="preserve" x="47.5067" y="371.78" fill="black" font-size="13.5814" font-family="Helvetica">0
</text>
<text xml:space="preserve" x="32.55" y="306.256" fill="black" font-size="13.5814" font-family="Helvetica">100
</text>
<text xml:space="preserve" x="32.55" y="241.443" fill="black" font-size="13.5814" font-family="Helvetica">200
</text>
<text xml:space="preserve" x="32.55" y="176.631" fill="black" font-size="13.5814" font-family="Helvetica">300
</text>
<text xml:space="preserve" x="32.55" y="111.107" fill="black" font-size="13.5814" font-family="Helvetica">400
</text>
<text xml:space="preserve" x="32.55" y="46.2945" fill="black" font-size="13.5814" font-family="Helvetica">500
</text>
<g transform="rotate(-90,20.4422,148.855)">
<text xml:space="preserve" x="20.4422" y="148.855" fill="black" font-size="13.5814" font-family="Helvetica"> number of events
</text>
</g>
<text xml:space="preserve" x="228.411" y="19.9422" fill="black" font-size="19.828" font-family="Helvetica">Radius of jet
</text>
<rect x="442.705" y="26.4804" width="113.386" height="65.1826" fill="white"/>
<path d="M442.705,91.663h 113.386" fill="none" stroke="black"/>
<path d="M556.091,91.663v -65.1826" fill="none" stroke="black"/>
<path d="M556.091,26.4804h -113.386" fill="none" stroke="black"/>
<path d="M442.705,26.4804v 65.1826" fill="none" stroke="black"/>
<text xml:space="preserve" x="459.171" y="39.1722" fill="black" font-size="14.2541" font-family="Helvetica">Radius of jet
</text>
<path d="M442.705,42.7761h 113.386" fill="none" stroke="black"/>
<text xml:space="preserve" x="448.488" y="54.8411" fill="black" font-size="10.0832" font-family="Helvetica">Entries 
</text>
<text xml:space="preserve" x="516.149" y="54.1289" fill="black" font-size="10.0832" font-family="Helvetica"> 151271
</text>
<text xml:space="preserve" x="448.488" y="71.2223" fill="black" font-size="10.0832" font-family="Helvetica">Mean  
</text>
<text xml:space="preserve" x="519.71" y="70.51" fill="black" font-size="10.0832" font-family="Helvetica">  6.169
</text>
<text xml:space="preserve" x="448.488" y="87.6034" fill="black" font-size="10.0832" font-family="Helvetica">Std Dev   
</text>
<text xml:space="preserve" x="519.71" y="86.8912" fill="black" font-size="10.0832" font-family="Helvetica">  1.627
</text>
<text xml:space="preserve" x="228.411" y="19.9422" fill="black" font-size="19.828" font-family="Helvetica">Radius of jet
</text></svg>
