<?xml version="1.0" standalone="no"?>
<svg width="567.429" height="407.891" viewBox="0 0 567.429 407.891" xmlns="http://www.w3.org/2000/svg" shape-rendering="crispEdges">
<title>
output.svg
</title>
<desc>
Creator: ROOT Version 6.32.06
CreationDate: Mon Dec  2 12:24:01 2024</desc>
<defs>
</defs>
<rect x="0.5" y="0" width="566.929" height="407.391" fill="white"/>
<rect x="57.1929" y="40.7391" width="453.543" height="325.913" fill="white"/>
<rect x="57.1929" y="40.7391" width="453.543" height="325.913" fill="none" stroke="black"/>
<path d="M57.1929,253.457h 0.304391v -1.19153h 0.304391v -5.95765h 0.304391v -16.6814h 0.304391v -25.0221h 0.304391v -8.93647h 0.304391v 16.0856h 0.304391v -5.95765h 0.304391v -1.78729h 0.304391v -19.6602h 0.304391v -7.74494h 0.304391v -14.2984h
 0.304391v 19.6602h 0.304391v -22.0433h 0.304391v -14.8941h 0.304391v 8.93647h 0.304391v -25.6179h 0.304391v 13.7026h 0.304391v -10.7238h 0.304391v -9.53223h 0.304391v -11.3195h 0.304391v 13.1068h 0.304391v -29.7882h 0.304391v 35.1501h 0.304391v
 -17.2772h 0.304391v 17.8729h 0.304391v -36.3416h 0.304391v -0.595765h 0.304391v 13.1068h 0.304391v -25.6179h 0.304391v 2.97882h 0.304391v 25.6179h 0.304391v -8.3407h 0.304391v 3.57459h 0.304391v -10.7238h 0.304391v 8.93647h 0.304391v -9.53223h
 0.304391v -5.36188h 0.304391v 1.19153h 0.304391v 16.6814h 0.304391v -8.93647h 0.304391v -39.9162h 0.304391v 41.1078h 0.304391v -29.1925h 0.304391v 21.4475h 0.304391v 18.4687h 0.304391v -9.53223h 0.304391v -21.4475h 0.304391v 14.2984h 0.304391v
 7.74494h 0.304391v -22.6391h 0.304391v 35.7459h 0.304391v -29.7882h 0.304391v 8.93647h 0.304391v 5.36188h 0.304391v -4.17035h 0.304391v -26.2136h 0.304391v 11.3195h 0.304391v 26.8094h 0.304391v -30.384h 0.304391v 10.128h 0.304391v 10.7238h 0.304391v
 2.97882h 0.304391v -17.2772h 0.304391v 19.0645h 0.304391v -20.8518h 0.304391v -1.78729h 0.304391v 2.38306h 0.304391v 8.93647h 0.304391v 1.78729h 0.304391v -12.5111h 0.304391v 16.0856h 0.304391v -22.6391h 0.304391v 19.6602h 0.304391v 13.1068h
 0.304391v -10.128h 0.304391v -7.14918h 0.304391v -2.97882h 0.304391v 26.2136h 0.304391v -0.595765h 0.304391v 8.93647h 0.304391v -10.7238h 0.304391v -2.38306h 0.304391v -3.57459h 0.304391v -14.8941h 0.304391v 34.5543h 0.304391v -3.57459h 0.304391v
 -26.2136h 0.304391v 26.8094h 0.304391v -5.36188h 0.304391v 20.8518h 0.304391v -1.19153h 0.304391v -14.8941h 0.304391v 0.595765h 0.304391v 12.5111h 0.304391v 5.95765h 0.304391v -8.3407h 0.304391v -16.0856h 0.304391v 19.0645h 0.304391v 25.6179h
 0.304391v -22.0433h 0.608783v 4.76612h 0.304391v 1.19153h 0.304391v -5.95765h 0.304391v 24.4263h 0.304391v -32.7671h 0.304391v 4.76612h 0.304391v 11.9153h 0.304391v 4.17035h 0.304391v 1.19153h 0.304391v -9.53223h 0.304391v -1.19153h 0.304391v
 8.93647h 0.304391v 4.17035h 0.304391v 4.76612h 0.304391v -4.76612h 0.304391v 11.3195h 0.304391v 5.95765h 0.304391v 4.17035h 0.304391v -14.2984h 0.304391v -21.4475h 0.304391v 13.7026h 0.304391v 35.1501h 0.304391v -28.0009h 0.304391v 17.2772h
 0.304391v -10.7238h 0.304391v 10.128h 0.304391v 2.97882h 0.304391v 5.95765h 0.304391v -3.57459h 0.304391v -28.0009h 0.304391v 23.2348h 0.304391v 6.55341h 0.304391v -9.53223h 0.304391v -13.1068h 0.304391v 18.4687h 0.304391v 14.2984h 0.304391v 10.128h
 0.304391v -16.6814h 0.304391v 12.5111h 0.304391v -4.17035h 0.304391v 1.78729h 0.304391v -10.128h 0.304391v 16.6814h 0.304391v -9.53223h 0.304391v 5.36188h 0.304391v -7.74494h 0.304391v 32.1713h 0.304391v -8.93647h 0.304391v -7.74494h 0.304391v
 -22.6391h 0.304391v -4.76612h 0.304391v 28.0009h 0.304391v 10.7238h 0.304391v -18.4687h 0.304391v -3.57459h 0.304391v 14.2984h 0.304391v 7.74494h 0.304391v 10.7238h 0.304391v -8.93647h 0.304391v 4.76612h 0.304391v -32.1713h 0.304391v 20.8518h
 0.304391v -4.17035h 0.304391v 16.0856h 0.304391v -2.38306h 0.304391v 12.5111h 0.304391v -22.0433h 0.304391v 13.7026h 0.304391v -1.19153h 0.304391v 10.128h 0.304391v -26.2136h 0.304391v 35.1501h 0.304391v -14.8941h 0.304391v -10.128h 0.304391v
 14.2984h 0.304391v -2.97882h 0.304391v 0.595765h 0.304391v 8.93647h 0.304391v -9.53223h 0.304391v 17.8729h 0.304391v -13.1068h 0.304391v 2.38306h 0.304391v -13.1068h 0.304391v 23.2348h 0.304391v -16.6814h 0.304391v 7.74494h 0.304391v 10.7238h
 0.304391v -1.19153h 0.304391v -16.6814h 0.304391v 18.4687h 0.304391v -4.17035h 0.304391v 0.595765h 0.304391v -4.76612h 0.913174v 13.7026h 0.304391v -14.8941h 0.304391v 20.256h 0.304391v -8.3407h 0.304391v -4.76612h 0.304391v -0.595765h 0.304391v
 1.19153h 0.304391v 13.1068h 0.304391v -7.14918h 0.304391v -5.95765h 0.304391v 6.55341h 0.304391v -7.14918h 0.304391v 20.8518h 0.304391v -16.0856h 0.304391v 17.8729h 0.304391v -13.1068h 0.304391v 0.595765h 0.304391v -1.78729h 0.304391v 1.78729h
 0.304391v 10.128h 0.304391v 3.57459h 0.304391v 13.1068h 0.304391v -25.6179h 0.304391v -4.76612h 0.304391v 23.2348h 0.304391v 0.595765h 0.304391v -10.128h 0.304391v -19.6602h 0.304391v 25.0221h 0.304391v -4.17035h 0.304391v -8.3407h 0.304391v 10.128h
 0.304391v -13.7026h 0.304391v 10.7238h 0.304391v 8.93647h 0.304391v 0.595765h 0.304391v -14.8941h 0.304391v 4.17035h 0.304391v 2.38306h 0.304391v 7.74494h 0.304391v -9.53223h 0.304391v -8.3407h 0.304391v 7.14918h 0.304391v 5.95765h 0.304391v
 -8.93647h 0.304391v -1.78729h 0.304391v 20.8518h 0.304391v 0.595765h 0.304391v -5.36188h 0.304391v -11.3195h 0.304391v 2.38306h 0.304391v 13.1068h 0.304391v -5.36188h 0.304391v 12.5111h 0.304391v -17.8729h 0.304391v 13.7026h 0.304391v -8.93647h
 0.304391v 1.19153h 0.304391v 7.74494h 0.304391v -4.76612h 0.304391v 8.3407h 0.304391v -8.3407h 0.304391v -1.19153h 0.304391v 10.7238h 0.304391v -16.6814h 0.304391v 10.7238h 0.304391v 15.4899h 0.304391v -17.2772h 0.304391v -8.3407h 0.304391v 20.8518h
 0.304391v -9.53223h 0.304391v 0.595765h 0.304391v 8.3407h 0.304391v -10.128h 0.304391v 4.76612h 0.304391v -7.14918h 0.304391v -3.57459h 0.304391v 10.7238h 0.304391v 8.3407h 0.304391v -7.74494h 0.304391v 2.97882h 0.304391v -7.74494h 0.304391v
 -7.74494h 0.304391v 20.8518h 0.304391v -11.9153h 0.304391v 8.3407h 0.304391v 2.97882h 0.304391v -17.2772h 0.304391v 1.78729h 0.304391v -2.97882h 0.304391v 14.2984h 0.304391v -2.97882h 0.304391v -6.55341h 0.304391v 12.5111h 0.304391v -17.2772h
 0.304391v 13.7026h 0.304391v -0.595765h 0.608783v 12.5111h 0.304391v -8.93647h 0.304391v -10.128h 0.304391v 3.57459h 0.304391v -0.595765h 0.608783v -2.38306h 0.304391v 4.76612h 0.304391v 5.95765h 0.304391v -10.7238h 0.304391v 10.128h 0.304391v
 -8.93647h 0.304391v -9.53223h 0.304391v -0.595765h 0.304391v 17.8729h 0.304391v -22.6391h 0.304391v 20.256h 0.304391v -11.3195h 0.304391v 13.7026h 0.304391v -10.128h 0.304391v 7.14918h 0.304391v 3.57459h 0.304391v 0.595765h 0.304391v -23.8306h
 0.304391v 14.2984h 0.304391v 4.76612h 0.304391v -4.76612h 0.304391v 0.595765h 0.304391v -2.38306h 0.304391v 7.74494h 0.304391v -8.3407h 0.304391v -2.97882h 0.304391v -4.17035h 0.304391v 15.4899h 0.304391v -11.3195h 0.304391v 0.595765h 0.608783v
 12.5111h 0.304391v -10.128h 0.304391v -5.95765h 0.304391v -1.78729h 0.304391v 14.2984h 0.304391v -15.4899h 0.304391v 11.9153h 0.304391v -5.95765h 0.304391v -4.76612h 0.304391v -5.36188h 0.304391v 19.0645h 0.304391v -8.3407h 0.304391v -16.6814h
 0.304391v 9.53223h 0.304391v 4.76612h 0.304391v -16.6814h 0.304391v 17.8729h 0.304391v -2.97882h 0.304391v 1.78729h 0.304391v -5.95765h 0.304391v -8.93647h 0.304391v 13.1068h 0.304391v 1.19153h 0.304391v -13.7026h 0.304391v 1.78729h 0.304391v
 10.128h 0.304391v -11.9153h 0.304391v -0.595765h 0.304391v 1.19153h 0.304391v -3.57459h 0.304391v -7.14918h 0.304391v 8.93647h 0.304391v -9.53223h 0.304391v 5.95765h 0.304391v 8.93647h 0.304391v 0.595765h 0.304391v -9.53223h 0.304391v -6.55341h
 0.304391v 10.128h 0.304391v -2.97882h 0.304391v -0.595765h 0.304391v 4.17035h 0.304391v 1.78729h 0.304391v 6.55341h 0.304391v -12.5111h 0.304391v 7.74494h 0.304391v -7.14918h 0.304391v 2.38306h 0.304391v 2.97882h 0.304391v -21.4475h 0.304391v
 9.53223h 0.304391v -6.55341h 0.304391v 12.5111h 0.304391v -1.78729h 0.304391v 5.36188h 0.304391v -26.8094h 0.304391v 5.36188h 0.304391v 4.17035h 0.304391v -10.128h 0.304391v 22.0433h 0.304391v -5.36188h 0.304391v 9.53223h 0.304391v -6.55341h
 0.304391v -4.76612h 0.304391v -1.78729h 0.304391v -10.128h 0.304391v 15.4899h 0.304391v -21.4475h 0.304391v 1.78729h 0.304391v 9.53223h 0.304391v -15.4899h 0.304391v 1.78729h 0.304391v 7.14918h 0.304391v 19.0645h 0.304391v -2.97882h 0.304391v
 -8.93647h 0.304391v -19.6602h 0.304391v 5.95765h 0.304391v 7.74494h 0.304391v -4.76612h 0.304391v -0.595765h 0.304391v 8.3407h 0.304391v 6.55341h 0.304391v -7.14918h 0.304391v -6.55341h 0.304391v -3.57459h 0.304391v 25.0221h 0.304391v -22.6391h
 0.304391v -4.17035h 0.304391v 17.8729h 0.304391v -18.4687h 0.304391v 10.7238h 0.304391v -12.5111h 0.304391v 2.97882h 0.304391v 2.38306h 0.304391v -16.0856h 0.304391v 27.4052h 0.304391v -25.6179h 0.304391v 28.5967h 0.304391v -19.0645h 0.304391v
 -4.17035h 0.304391v 14.2984h 0.608783v 0.595765h 0.304391v 1.19153h 0.304391v -9.53223h 0.304391v -1.19153h 0.304391v 14.2984h 0.304391v -11.3195h 0.304391v -4.17035h 0.304391v 6.55341h 0.304391v -9.53223h 0.608783v 16.0856h 0.304391v -0.595765h
 0.304391v -18.4687h 0.304391v 13.7026h 0.304391v -13.1068h 0.304391v 7.14918h 0.304391v -16.6814h 0.304391v 10.7238h 0.304391v 14.8941h 0.304391v -10.7238h 0.304391v 11.3195h 0.304391v -6.55341h 0.304391v 2.97882h 0.304391v -14.2984h 0.304391v
 8.3407h 0.304391v 6.55341h 0.304391v 1.19153h 0.304391v 1.78729h 0.304391v -7.14918h 0.304391v 8.93647h 0.304391v -10.128h 0.304391v -26.2136h 0.304391v 25.0221h 0.304391v -1.78729h 0.304391v 16.0856h 0.304391v -16.0856h 0.304391v 3.57459h 0.304391v
 -11.3195h 0.304391v 13.1068h 0.304391v -7.14918h 0.304391v 19.6602h 0.304391v -2.97882h 0.304391v -8.93647h 0.304391v -1.19153h 0.304391v -3.57459h 0.304391v 7.14918h 0.304391v -8.3407h 0.304391v 14.2984h 0.304391v -7.74494h 0.304391v -1.78729h
 0.304391v -7.74494h 0.304391v -5.36188h 0.304391v 13.7026h 0.304391v 0.595765h 0.304391v -8.3407h 0.304391v 2.97882h 0.304391v 7.74494h 0.304391v 8.93647h 0.304391v -11.3195h 0.304391v -2.97882h 0.304391v -1.19153h 0.304391v 33.9586h 0.304391v
 -29.7882h 0.304391v 8.93647h 0.304391v 0.595765h 0.304391v -22.6391h 0.304391v 23.8306h 0.304391v -2.97882h 0.304391v -5.36188h 0.304391v -10.128h 0.304391v 12.5111h 0.304391v -2.97882h 0.304391v 7.74494h 0.304391v 5.36188h 0.304391v -24.4263h
 0.304391v 15.4899h 0.304391v -3.57459h 0.304391v -0.595765h 0.304391v 14.8941h 0.304391v 11.9153h 0.304391v -17.8729h 0.304391v 7.14918h 0.304391v 2.97882h 0.304391v -11.9153h 0.304391v -19.0645h 0.304391v 36.3416h 0.304391v -28.0009h 0.304391v
 11.9153h 0.304391v -17.8729h 0.304391v 19.0645h 0.304391v 11.3195h 0.304391v -11.3195h 0.304391v -0.595765h 0.304391v 4.76612h 0.304391v 2.97882h 0.304391v -14.8941h 0.304391v 8.93647h 0.304391v 14.8941h 0.304391v -11.3195h 0.304391v 7.14918h
 0.304391v -24.4263h 0.304391v -2.97882h 0.304391v 9.53223h 0.304391v 9.53223h 0.304391v -6.55341h 0.304391v 8.3407h 0.304391v -5.95765h 0.304391v 8.93647h 0.304391v -25.0221h 0.304391v 25.6179h 0.304391v -3.57459h 0.304391v -13.1068h 0.304391v
 16.0856h 0.304391v -16.0856h 0.304391v 8.93647h 0.304391v -10.128h 0.304391v 16.0856h 0.304391v -10.7238h 0.304391v 7.74494h 0.304391v 1.19153h 0.304391v -8.93647h 0.304391v 11.9153h 0.304391v -8.3407h 0.304391v 0.595765h 0.304391v -0.595765h
 0.304391v -19.6602h 0.304391v 14.8941h 0.304391v -3.57459h 0.304391v 2.38306h 0.304391v -4.76612h 0.304391v 7.74494h 0.304391v 5.95765h 0.304391v -14.8941h 0.304391v -11.3195h 0.304391v 17.8729h 0.304391v 0.595765h 0.304391v 7.14918h 0.304391v
 -17.2772h 0.304391v -6.55341h 0.304391v 23.8306h 0.304391v -10.128h 0.304391v -5.95765h 0.304391v -4.17035h 0.304391v 25.6179h 0.304391v 6.55341h 0.304391v -36.9374h 0.304391v 12.5111h 0.608783v -1.78729h 0.304391v 11.9153h 0.304391v -7.74494h
 0.304391v 13.1068h 0.304391v -23.8306h 0.304391v 2.97882h 0.304391v 10.128h 0.304391v -5.36188h 0.304391v 2.97882h 0.304391v -1.78729h 0.304391v 1.19153h 0.304391v -1.19153h 0.304391v 17.8729h 0.304391v -8.93647h 0.304391v -7.14918h 0.304391v
 -9.53223h 0.304391v -5.95765h 0.304391v 10.128h 0.304391v -2.97882h 0.304391v -2.97882h 0.304391v 29.7882h 0.304391v -1.19153h 0.304391v 2.38306h 0.304391v -11.9153h 0.608783v 4.76612h 0.304391v 8.93647h 0.304391v 4.76612h 0.304391v 14.2984h
 0.304391v 0.595765h 0.304391v 7.14918h 0.608783v 1.78729h 0.304391v 37.5332h 0.304391v 6.55341h 0.304391v 7.74494h 0.304391v 4.76612h 0.304391v -2.38306h 0.304391v -2.38306h 0.304391v 17.2772h 0.304391v -7.14918h 0.608783v 3.57459h 0.304391v
 -9.53223h 0.304391v 10.7238h 0.304391v 1.78729h 0.304391v -2.97882h 0.304391v -2.97882h 0.304391v 4.17035h 0.304391v -4.76612h 0.304391v 8.93647h 0.304391v 1.19153h 0.304391v -1.19153h 0.304391v -2.38306h 0.304391v 1.78729h 0.304391v 0.595765h
 0.304391v -5.95765h 0.304391v 8.3407h 0.304391v -1.78729h 0.608783v 2.38306h 0.304391v 1.78729h 0.304391v -4.76612h 0.304391v 1.19153h 0.304391v 3.57459h 0.304391v -1.78729h 0.304391v -0.595765h 0.304391v -1.19153h 0.304391v 0.595765h 0.304391v
 1.78729h 0.304391v -2.38306h 0.304391v -0.595765h 0.304391v 3.57459h 0.304391v 0.595765h 0.304391v -2.97882h 0.304391v 2.97882h 0.304391v -3.57459h 0.304391v 1.19153h 0.304391v 1.78729h 0.304391v -1.19153h 0.304391v 3.57459h 0.304391v -2.97882h
 0.304391v 0.595765h 0.304391v 1.19153h 0.304391v 2.97882h 0.304391v -1.78729h 0.304391v 1.19153h 0.304391v -4.17035h 0.304391v -1.78729h 0.304391v 1.78729h 0.304391v 2.97882h 0.304391v 2.38306h 0.304391v -2.97882h 0.304391v -2.97882h 0.304391v
 4.76612h 0.304391v -1.19153h 0.608783v 0.595765h 0.304391v -2.97882h 0.304391v 1.19153h 0.304391v 2.38306h 0.304391v -1.19153h 0.304391v 0.595765h 0.304391v 0.595765h 0.304391v 1.19153h 0.304391v -1.78729h 0.304391v 0.595765h 0.304391v 1.78729h
 0.304391v -3.57459h 0.304391v 1.19153h 0.304391v -1.78729h 0.304391v 2.38306h 0.304391v -0.595765h 0.304391v 0.595765h 0.304391v -0.595765h 0.304391v -1.19153h 0.608783v 2.97882h 0.608783v -1.78729h 0.304391v 1.19153h 0.913174v -1.78729h 0.608783v
 1.78729h 0.304391v -2.38306h 0.304391v 1.19153h 0.304391v 0.595765h 0.304391v 0.595765h 0.304391v 0.595765h 0.304391v -2.97882h 0.304391v 1.78729h 0.304391v 1.78729h 0.304391v -1.78729h 0.304391v 1.19153h 0.304391v 0.595765h 0.304391v -1.19153h
 0.608783v 1.19153h 0.304391v -1.19153h 0.304391v 0.595765h 0.608783v 0.595765h 0.304391v -2.38306h 0.608783v 1.19153h 0.608783v 0.595765h 0.304391v -1.19153h 0.304391v 0.595765h 0.304391v -0.595765h 0.304391v 0.595765h 0.304391v 0.595765h 0.304391v
 -0.595765h 0.304391v -0.595765h 0.304391v 1.19153h 0.913174v -0.595765h 0.304391v 0.595765h 0.304391v 0.595765h 0.304391v -0.595765h 0.608783v -0.595765h 0.304391v -1.19153h 0.304391v 1.78729h 0.304391v 0.595765h 0.304391v -0.595765h 0.304391v
 -0.595765h 0.304391v 1.19153h 0.608783v -0.595765h 0.608783v 0.595765h 0.608783v -0.595765h 0.304391v -0.595765h 0.304391v 1.19153h 0.304391v -0.595765h 0.304391v 0.595765h 0.608783v -1.78729h 0.304391v 1.19153h 0.304391v 0.595765h 0.304391v
 -0.595765h 0.608783v 0.595765h 0.608783v -0.595765h 0.304391v 0.595765h 0.304391v -1.19153h 0.304391v 1.19153h 0.304391v -0.595765h 0.608783v 0.595765h 0.304391v -1.19153h 0.304391v 1.19153h 1.21757v -0.595765h 0.304391v 0.595765h 0.608783v
 -0.595765h 0.608783v 0.595765h 0.304391v -0.595765h 0.304391v 0.595765h 3.95709v -0.595765h 0.304391v 0.595765h 1.82635v -0.595765h 0.304391v 0.595765h 0.913174v -0.595765h 0.304391v 0.595765h 0.608783v -0.595765h 0.304391v 0.595765h 0.304391v
 -0.595765h 0.304391v 0.595765h 0.304391v -0.595765h 0.304391v 0.595765h 4.56587v -0.595765h 0.608783v 0.595765h 0.608783v -0.595765h 0.304391v 0.595765h 0.304391v -0.595765h 0.304391v 0.595765h 4.87026v -0.595765h 0.304391v 0.595765h 0.608783v
 -0.595765h 0.304391v 0.595765h 3.04391v -0.595765h 0.304391v 0.595765h 8.82735v -0.595765h 0.304391v 0.595765h 6.69661v -0.595765h 0.304391v 0.595765h 170.764" fill="none" stroke="#000099"/>
<path d="M57.1929,366.652h 453.543" fill="none" stroke="black"/>
<path d="M115.027,356.875v 9.77739" fill="none" stroke="black"/>
<path d="M130.247,361.763v 4.8887" fill="none" stroke="black"/>
<path d="M145.466,361.763v 4.8887" fill="none" stroke="black"/>
<path d="M160.686,361.763v 4.8887" fill="none" stroke="black"/>
<path d="M175.906,356.875v 9.77739" fill="none" stroke="black"/>
<path d="M191.125,361.763v 4.8887" fill="none" stroke="black"/>
<path d="M206.345,361.763v 4.8887" fill="none" stroke="black"/>
<path d="M221.564,361.763v 4.8887" fill="none" stroke="black"/>
<path d="M236.784,356.875v 9.77739" fill="none" stroke="black"/>
<path d="M252.003,361.763v 4.8887" fill="none" stroke="black"/>
<path d="M267.223,361.763v 4.8887" fill="none" stroke="black"/>
<path d="M282.443,361.763v 4.8887" fill="none" stroke="black"/>
<path d="M297.662,356.875v 9.77739" fill="none" stroke="black"/>
<path d="M312.882,361.763v 4.8887" fill="none" stroke="black"/>
<path d="M328.101,361.763v 4.8887" fill="none" stroke="black"/>
<path d="M343.321,361.763v 4.8887" fill="none" stroke="black"/>
<path d="M358.54,356.875v 9.77739" fill="none" stroke="black"/>
<path d="M373.76,361.763v 4.8887" fill="none" stroke="black"/>
<path d="M388.98,361.763v 4.8887" fill="none" stroke="black"/>
<path d="M404.199,361.763v 4.8887" fill="none" stroke="black"/>
<path d="M419.419,356.875v 9.77739" fill="none" stroke="black"/>
<path d="M434.638,361.763v 4.8887" fill="none" stroke="black"/>
<path d="M449.858,361.763v 4.8887" fill="none" stroke="black"/>
<path d="M465.077,361.763v 4.8887" fill="none" stroke="black"/>
<path d="M480.297,356.875v 9.77739" fill="none" stroke="black"/>
<path d="M115.027,356.875v 9.77739" fill="none" stroke="black"/>
<path d="M99.8077,361.763v 4.8887" fill="none" stroke="black"/>
<path d="M84.5882,361.763v 4.8887" fill="none" stroke="black"/>
<path d="M69.3686,361.763v 4.8887" fill="none" stroke="black"/>
<path d="M480.297,356.875v 9.77739" fill="none" stroke="black"/>
<path d="M495.517,361.763v 4.8887" fill="none" stroke="black"/>
<path d="M510.736,361.763v 4.8887" fill="none" stroke="black"/>
<text xml:space="preserve" x="111.607" y="380.327" fill="black" font-size="13.5814" font-family="Helvetica">2
</text>
<text xml:space="preserve" x="172.146" y="380.327" fill="black" font-size="13.5814" font-family="Helvetica">4
</text>
<text xml:space="preserve" x="233.397" y="380.327" fill="black" font-size="13.5814" font-family="Helvetica">6
</text>
<text xml:space="preserve" x="293.936" y="380.327" fill="black" font-size="13.5814" font-family="Helvetica">8
</text>
<text xml:space="preserve" x="350.913" y="380.327" fill="black" font-size="13.5814" font-family="Helvetica">10
</text>
<text xml:space="preserve" x="411.452" y="380.327" fill="black" font-size="13.5814" font-family="Helvetica">12
</text>
<text xml:space="preserve" x="472.704" y="380.327" fill="black" font-size="13.5814" font-family="Helvetica">14
</text>
<text xml:space="preserve" x="469.855" y="394.571" fill="black" font-size="13.5814" font-family="Helvetica"> radius
</text>
<path d="M57.1929,366.652v -325.913" fill="none" stroke="black"/>
<path d="M70.7992,366.652h -13.6063" fill="none" stroke="black"/>
<path d="M63.9961,354.737h -6.80315" fill="none" stroke="black"/>
<path d="M63.9961,342.822h -6.80315" fill="none" stroke="black"/>
<path d="M63.9961,330.906h -6.80315" fill="none" stroke="black"/>
<path d="M63.9961,318.991h -6.80315" fill="none" stroke="black"/>
<path d="M70.7992,307.076h -13.6063" fill="none" stroke="black"/>
<path d="M63.9961,295.16h -6.80315" fill="none" stroke="black"/>
<path d="M63.9961,283.245h -6.80315" fill="none" stroke="black"/>
<path d="M63.9961,271.33h -6.80315" fill="none" stroke="black"/>
<path d="M63.9961,259.415h -6.80315" fill="none" stroke="black"/>
<path d="M70.7992,247.499h -13.6063" fill="none" stroke="black"/>
<path d="M63.9961,235.584h -6.80315" fill="none" stroke="black"/>
<path d="M63.9961,223.669h -6.80315" fill="none" stroke="black"/>
<path d="M63.9961,211.753h -6.80315" fill="none" stroke="black"/>
<path d="M63.9961,199.838h -6.80315" fill="none" stroke="black"/>
<path d="M70.7992,187.923h -13.6063" fill="none" stroke="black"/>
<path d="M63.9961,176.007h -6.80315" fill="none" stroke="black"/>
<path d="M63.9961,164.092h -6.80315" fill="none" stroke="black"/>
<path d="M63.9961,152.177h -6.80315" fill="none" stroke="black"/>
<path d="M63.9961,140.262h -6.80315" fill="none" stroke="black"/>
<path d="M70.7992,128.346h -13.6063" fill="none" stroke="black"/>
<path d="M63.9961,116.431h -6.80315" fill="none" stroke="black"/>
<path d="M63.9961,104.516h -6.80315" fill="none" stroke="black"/>
<path d="M63.9961,92.6004h -6.80315" fill="none" stroke="black"/>
<path d="M63.9961,80.6852h -6.80315" fill="none" stroke="black"/>
<path d="M70.7992,68.7699h -13.6063" fill="none" stroke="black"/>
<path d="M70.7992,68.7699h -13.6063" fill="none" stroke="black"/>
<path d="M63.9961,56.8546h -6.80315" fill="none" stroke="black"/>
<path d="M63.9961,44.9393h -6.80315" fill="none" stroke="black"/>
<text xml:space="preserve" x="47.5067" y="371.78" fill="black" font-size="13.5814" font-family="Helvetica">0
</text>
<text xml:space="preserve" x="32.55" y="311.953" fill="black" font-size="13.5814" font-family="Helvetica">100
</text>
<text xml:space="preserve" x="32.55" y="252.839" fill="black" font-size="13.5814" font-family="Helvetica">200
</text>
<text xml:space="preserve" x="32.55" y="193.012" fill="black" font-size="13.5814" font-family="Helvetica">300
</text>
<text xml:space="preserve" x="32.55" y="133.186" fill="black" font-size="13.5814" font-family="Helvetica">400
</text>
<text xml:space="preserve" x="32.55" y="74.0711" fill="black" font-size="13.5814" font-family="Helvetica">500
</text>
<g transform="rotate(-90,20.4422,148.855)">
<text xml:space="preserve" x="20.4422" y="148.855" fill="black" font-size="13.5814" font-family="Helvetica"> number of events
</text>
</g>
<text xml:space="preserve" x="228.411" y="19.9422" fill="black" font-size="19.828" font-family="Helvetica">Radius of jet
</text>
<rect x="442.705" y="26.4804" width="113.386" height="65.1826" fill="white"/>
<path d="M442.705,91.663h 113.386" fill="none" stroke="black"/>
<path d="M556.091,91.663v -65.1826" fill="none" stroke="black"/>
<path d="M556.091,26.4804h -113.386" fill="none" stroke="black"/>
<path d="M442.705,26.4804v 65.1826" fill="none" stroke="black"/>
<text xml:space="preserve" x="459.171" y="39.1722" fill="black" font-size="14.2541" font-family="Helvetica">Radius of jet
</text>
<path d="M442.705,42.7761h 113.386" fill="none" stroke="black"/>
<text xml:space="preserve" x="448.488" y="54.8411" fill="black" font-size="10.0832" font-family="Helvetica">Entries 
</text>
<text xml:space="preserve" x="516.149" y="54.1289" fill="black" font-size="10.0832" font-family="Helvetica"> 151271
</text>
<text xml:space="preserve" x="448.488" y="71.2223" fill="black" font-size="10.0832" font-family="Helvetica">Mean  
</text>
<text xml:space="preserve" x="519.71" y="70.51" fill="black" font-size="10.0832" font-family="Helvetica">  2.787
</text>
<text xml:space="preserve" x="448.488" y="87.6034" fill="black" font-size="10.0832" font-family="Helvetica">Std Dev   
</text>
<text xml:space="preserve" x="519.71" y="86.8912" fill="black" font-size="10.0832" font-family="Helvetica">  1.934
</text>
<text xml:space="preserve" x="228.411" y="19.9422" fill="black" font-size="19.828" font-family="Helvetica">Radius of jet
</text></svg>
